<?xml version="1.0" encoding="utf-8" standalone="no"?>
<!DOCTYPE svg PUBLIC "-//W3C//DTD SVG 1.1//EN"
  "http://www.w3.org/Graphics/SVG/1.1/DTD/svg11.dtd">
<svg xmlns:xlink="http://www.w3.org/1999/xlink" width="566.680625pt" height="304.19926pt" viewBox="0 0 566.680625 304.19926" xmlns="http://www.w3.org/2000/svg" version="1.1">
 <metadata>
  <rdf:RDF xmlns:dc="http://purl.org/dc/elements/1.1/" xmlns:cc="http://creativecommons.org/ns#" xmlns:rdf="http://www.w3.org/1999/02/22-rdf-syntax-ns#">
   <cc:Work>
    <dc:type rdf:resource="http://purl.org/dc/dcmitype/StillImage"/>
    <dc:date>2026-06-25T02:21:42.473044</dc:date>
    <dc:format>image/svg+xml</dc:format>
    <dc:creator>
     <cc:Agent>
      <dc:title>Matplotlib v3.10.8, https://matplotlib.org/</dc:title>
     </cc:Agent>
    </dc:creator>
   </cc:Work>
  </rdf:RDF>
 </metadata>
 <defs>
  <style type="text/css">*{stroke-linejoin: round; stroke-linecap: butt}</style>
 </defs>
 <g id="figure_1">
  <g id="patch_1">
   <path d="M 0 304.19926 
L 566.680625 304.19926 
L 566.680625 0 
L 0 0 
z
" style="fill: #ffffff"/>
  </g>
  <g id="axes_1">
   <g id="patch_2">
    <path d="M 53.338125 258.468287 
L 545.483125 258.468287 
L 545.483125 28.698047 
L 53.338125 28.698047 
z
" style="fill: #ffffff"/>
   </g>
   <g id="patch_3">
    <path d="M 53.338125 258.468287 
L 258.398542 258.468287 
L 258.398542 28.698047 
L 53.338125 28.698047 
z
" clip-path="url(#pde6419d190)" style="fill: #f1f5f9; stroke: #f1f5f9; stroke-linejoin: miter"/>
   </g>
   <g id="patch_4">
    <path d="M 258.398542 258.468287 
L 381.434792 258.468287 
L 381.434792 28.698047 
L 258.398542 28.698047 
z
" clip-path="url(#pde6419d190)" style="fill: #fef9c3; opacity: 0.5; stroke: #fef9c3; stroke-linejoin: miter"/>
   </g>
   <g id="patch_5">
    <path d="M 381.434792 258.468287 
L 545.483125 258.468287 
L 545.483125 28.698047 
L 381.434792 28.698047 
z
" clip-path="url(#pde6419d190)" style="fill: #fee2e2; opacity: 0.55; stroke: #fee2e2; stroke-linejoin: miter"/>
   </g>
   <g id="matplotlib.axis_1">
    <g id="xtick_1">
     <g id="line2d_1">
      <defs>
       <path id="mfb75b6b858" d="M 0 0 
L 0 3.5 
" style="stroke: #000000; stroke-width: 0.8"/>
      </defs>
      <g>
       <use xlink:href="#mfb75b6b858" x="53.338125" y="258.468287" style="stroke: #000000; stroke-width: 0.8"/>
      </g>
     </g>
     <g id="text_1">
      <!-- 2023 -->
      <g transform="translate(39.340625 273.826568) scale(0.11 -0.11)">
       <defs>
        <path id="DejaVuSans-32" d="M 1228 531 
L 3431 531 
L 3431 0 
L 469 0 
L 469 531 
Q 828 903 1448 1529 
Q 2069 2156 2228 2338 
Q 2531 2678 2651 2914 
Q 2772 3150 2772 3378 
Q 2772 3750 2511 3984 
Q 2250 4219 1831 4219 
Q 1534 4219 1204 4116 
Q 875 4013 500 3803 
L 500 4441 
Q 881 4594 1212 4672 
Q 1544 4750 1819 4750 
Q 2544 4750 2975 4387 
Q 3406 4025 3406 3419 
Q 3406 3131 3298 2873 
Q 3191 2616 2906 2266 
Q 2828 2175 2409 1742 
Q 1991 1309 1228 531 
z
" transform="scale(0.015625)"/>
        <path id="DejaVuSans-30" d="M 2034 4250 
Q 1547 4250 1301 3770 
Q 1056 3291 1056 2328 
Q 1056 1369 1301 889 
Q 1547 409 2034 409 
Q 2525 409 2770 889 
Q 3016 1369 3016 2328 
Q 3016 3291 2770 3770 
Q 2525 4250 2034 4250 
z
M 2034 4750 
Q 2819 4750 3233 4129 
Q 3647 3509 3647 2328 
Q 3647 1150 3233 529 
Q 2819 -91 2034 -91 
Q 1250 -91 836 529 
Q 422 1150 422 2328 
Q 422 3509 836 4129 
Q 1250 4750 2034 4750 
z
" transform="scale(0.015625)"/>
        <path id="DejaVuSans-33" d="M 2597 2516 
Q 3050 2419 3304 2112 
Q 3559 1806 3559 1356 
Q 3559 666 3084 287 
Q 2609 -91 1734 -91 
Q 1441 -91 1130 -33 
Q 819 25 488 141 
L 488 750 
Q 750 597 1062 519 
Q 1375 441 1716 441 
Q 2309 441 2620 675 
Q 2931 909 2931 1356 
Q 2931 1769 2642 2001 
Q 2353 2234 1838 2234 
L 1294 2234 
L 1294 2753 
L 1863 2753 
Q 2328 2753 2575 2939 
Q 2822 3125 2822 3475 
Q 2822 3834 2567 4026 
Q 2313 4219 1838 4219 
Q 1578 4219 1281 4162 
Q 984 4106 628 3988 
L 628 4550 
Q 988 4650 1302 4700 
Q 1616 4750 1894 4750 
Q 2613 4750 3031 4423 
Q 3450 4097 3450 3541 
Q 3450 3153 3228 2886 
Q 3006 2619 2597 2516 
z
" transform="scale(0.015625)"/>
       </defs>
       <use xlink:href="#DejaVuSans-32"/>
       <use xlink:href="#DejaVuSans-30" transform="translate(63.623047 0)"/>
       <use xlink:href="#DejaVuSans-32" transform="translate(127.246094 0)"/>
       <use xlink:href="#DejaVuSans-33" transform="translate(190.869141 0)"/>
      </g>
     </g>
    </g>
    <g id="xtick_2">
     <g id="line2d_2">
      <g>
       <use xlink:href="#mfb75b6b858" x="135.362292" y="258.468287" style="stroke: #000000; stroke-width: 0.8"/>
      </g>
     </g>
     <g id="text_2">
      <!-- 2024 -->
      <g transform="translate(121.364792 273.826568) scale(0.11 -0.11)">
       <defs>
        <path id="DejaVuSans-34" d="M 2419 4116 
L 825 1625 
L 2419 1625 
L 2419 4116 
z
M 2253 4666 
L 3047 4666 
L 3047 1625 
L 3713 1625 
L 3713 1100 
L 3047 1100 
L 3047 0 
L 2419 0 
L 2419 1100 
L 313 1100 
L 313 1709 
L 2253 4666 
z
" transform="scale(0.015625)"/>
       </defs>
       <use xlink:href="#DejaVuSans-32"/>
       <use xlink:href="#DejaVuSans-30" transform="translate(63.623047 0)"/>
       <use xlink:href="#DejaVuSans-32" transform="translate(127.246094 0)"/>
       <use xlink:href="#DejaVuSans-34" transform="translate(190.869141 0)"/>
      </g>
     </g>
    </g>
    <g id="xtick_3">
     <g id="line2d_3">
      <g>
       <use xlink:href="#mfb75b6b858" x="217.386458" y="258.468287" style="stroke: #000000; stroke-width: 0.8"/>
      </g>
     </g>
     <g id="text_3">
      <!-- 2025 -->
      <g transform="translate(203.388958 273.826568) scale(0.11 -0.11)">
       <defs>
        <path id="DejaVuSans-35" d="M 691 4666 
L 3169 4666 
L 3169 4134 
L 1269 4134 
L 1269 2991 
Q 1406 3038 1543 3061 
Q 1681 3084 1819 3084 
Q 2600 3084 3056 2656 
Q 3513 2228 3513 1497 
Q 3513 744 3044 326 
Q 2575 -91 1722 -91 
Q 1428 -91 1123 -41 
Q 819 9 494 109 
L 494 744 
Q 775 591 1075 516 
Q 1375 441 1709 441 
Q 2250 441 2565 725 
Q 2881 1009 2881 1497 
Q 2881 1984 2565 2268 
Q 2250 2553 1709 2553 
Q 1456 2553 1204 2497 
Q 953 2441 691 2322 
L 691 4666 
z
" transform="scale(0.015625)"/>
       </defs>
       <use xlink:href="#DejaVuSans-32"/>
       <use xlink:href="#DejaVuSans-30" transform="translate(63.623047 0)"/>
       <use xlink:href="#DejaVuSans-32" transform="translate(127.246094 0)"/>
       <use xlink:href="#DejaVuSans-35" transform="translate(190.869141 0)"/>
      </g>
     </g>
    </g>
    <g id="xtick_4">
     <g id="line2d_4">
      <g>
       <use xlink:href="#mfb75b6b858" x="299.410625" y="258.468287" style="stroke: #000000; stroke-width: 0.8"/>
      </g>
     </g>
     <g id="text_4">
      <!-- 2026 -->
      <g transform="translate(285.413125 273.826568) scale(0.11 -0.11)">
       <defs>
        <path id="DejaVuSans-36" d="M 2113 2584 
Q 1688 2584 1439 2293 
Q 1191 2003 1191 1497 
Q 1191 994 1439 701 
Q 1688 409 2113 409 
Q 2538 409 2786 701 
Q 3034 994 3034 1497 
Q 3034 2003 2786 2293 
Q 2538 2584 2113 2584 
z
M 3366 4563 
L 3366 3988 
Q 3128 4100 2886 4159 
Q 2644 4219 2406 4219 
Q 1781 4219 1451 3797 
Q 1122 3375 1075 2522 
Q 1259 2794 1537 2939 
Q 1816 3084 2150 3084 
Q 2853 3084 3261 2657 
Q 3669 2231 3669 1497 
Q 3669 778 3244 343 
Q 2819 -91 2113 -91 
Q 1303 -91 875 529 
Q 447 1150 447 2328 
Q 447 3434 972 4092 
Q 1497 4750 2381 4750 
Q 2619 4750 2861 4703 
Q 3103 4656 3366 4563 
z
" transform="scale(0.015625)"/>
       </defs>
       <use xlink:href="#DejaVuSans-32"/>
       <use xlink:href="#DejaVuSans-30" transform="translate(63.623047 0)"/>
       <use xlink:href="#DejaVuSans-32" transform="translate(127.246094 0)"/>
       <use xlink:href="#DejaVuSans-36" transform="translate(190.869141 0)"/>
      </g>
     </g>
    </g>
    <g id="xtick_5">
     <g id="line2d_5">
      <g>
       <use xlink:href="#mfb75b6b858" x="381.434792" y="258.468287" style="stroke: #000000; stroke-width: 0.8"/>
      </g>
     </g>
     <g id="text_5">
      <!-- 2027 -->
      <g transform="translate(367.437292 273.826568) scale(0.11 -0.11)">
       <defs>
        <path id="DejaVuSans-37" d="M 525 4666 
L 3525 4666 
L 3525 4397 
L 1831 0 
L 1172 0 
L 2766 4134 
L 525 4134 
L 525 4666 
z
" transform="scale(0.015625)"/>
       </defs>
       <use xlink:href="#DejaVuSans-32"/>
       <use xlink:href="#DejaVuSans-30" transform="translate(63.623047 0)"/>
       <use xlink:href="#DejaVuSans-32" transform="translate(127.246094 0)"/>
       <use xlink:href="#DejaVuSans-37" transform="translate(190.869141 0)"/>
      </g>
     </g>
    </g>
    <g id="xtick_6">
     <g id="line2d_6">
      <g>
       <use xlink:href="#mfb75b6b858" x="463.458958" y="258.468287" style="stroke: #000000; stroke-width: 0.8"/>
      </g>
     </g>
     <g id="text_6">
      <!-- 2028 -->
      <g transform="translate(449.461458 273.826568) scale(0.11 -0.11)">
       <defs>
        <path id="DejaVuSans-38" d="M 2034 2216 
Q 1584 2216 1326 1975 
Q 1069 1734 1069 1313 
Q 1069 891 1326 650 
Q 1584 409 2034 409 
Q 2484 409 2743 651 
Q 3003 894 3003 1313 
Q 3003 1734 2745 1975 
Q 2488 2216 2034 2216 
z
M 1403 2484 
Q 997 2584 770 2862 
Q 544 3141 544 3541 
Q 544 4100 942 4425 
Q 1341 4750 2034 4750 
Q 2731 4750 3128 4425 
Q 3525 4100 3525 3541 
Q 3525 3141 3298 2862 
Q 3072 2584 2669 2484 
Q 3125 2378 3379 2068 
Q 3634 1759 3634 1313 
Q 3634 634 3220 271 
Q 2806 -91 2034 -91 
Q 1263 -91 848 271 
Q 434 634 434 1313 
Q 434 1759 690 2068 
Q 947 2378 1403 2484 
z
M 1172 3481 
Q 1172 3119 1398 2916 
Q 1625 2713 2034 2713 
Q 2441 2713 2670 2916 
Q 2900 3119 2900 3481 
Q 2900 3844 2670 4047 
Q 2441 4250 2034 4250 
Q 1625 4250 1398 4047 
Q 1172 3844 1172 3481 
z
" transform="scale(0.015625)"/>
       </defs>
       <use xlink:href="#DejaVuSans-32"/>
       <use xlink:href="#DejaVuSans-30" transform="translate(63.623047 0)"/>
       <use xlink:href="#DejaVuSans-32" transform="translate(127.246094 0)"/>
       <use xlink:href="#DejaVuSans-38" transform="translate(190.869141 0)"/>
      </g>
     </g>
    </g>
    <g id="xtick_7">
     <g id="line2d_7">
      <g>
       <use xlink:href="#mfb75b6b858" x="545.483125" y="258.468287" style="stroke: #000000; stroke-width: 0.8"/>
      </g>
     </g>
     <g id="text_7">
      <!-- 2029 -->
      <g transform="translate(531.485625 273.826568) scale(0.11 -0.11)">
       <defs>
        <path id="DejaVuSans-39" d="M 703 97 
L 703 672 
Q 941 559 1184 500 
Q 1428 441 1663 441 
Q 2288 441 2617 861 
Q 2947 1281 2994 2138 
Q 2813 1869 2534 1725 
Q 2256 1581 1919 1581 
Q 1219 1581 811 2004 
Q 403 2428 403 3163 
Q 403 3881 828 4315 
Q 1253 4750 1959 4750 
Q 2769 4750 3195 4129 
Q 3622 3509 3622 2328 
Q 3622 1225 3098 567 
Q 2575 -91 1691 -91 
Q 1453 -91 1209 -44 
Q 966 3 703 97 
z
M 1959 2075 
Q 2384 2075 2632 2365 
Q 2881 2656 2881 3163 
Q 2881 3666 2632 3958 
Q 2384 4250 1959 4250 
Q 1534 4250 1286 3958 
Q 1038 3666 1038 3163 
Q 1038 2656 1286 2365 
Q 1534 2075 1959 2075 
z
" transform="scale(0.015625)"/>
       </defs>
       <use xlink:href="#DejaVuSans-32"/>
       <use xlink:href="#DejaVuSans-30" transform="translate(63.623047 0)"/>
       <use xlink:href="#DejaVuSans-32" transform="translate(127.246094 0)"/>
       <use xlink:href="#DejaVuSans-39" transform="translate(190.869141 0)"/>
      </g>
     </g>
    </g>
   </g>
   <g id="matplotlib.axis_2">
    <g id="ytick_1">
     <g id="line2d_8">
      <path d="M 53.338125 246.345194 
L 545.483125 246.345194 
" clip-path="url(#pde6419d190)" style="fill: none; stroke: #e2e8f0; stroke-width: 0.6; stroke-linecap: square"/>
     </g>
     <g id="line2d_9">
      <defs>
       <path id="medecc4c9f6" d="M 0 0 
L -3.5 0 
" style="stroke: #000000; stroke-width: 0.8"/>
      </defs>
      <g>
       <use xlink:href="#medecc4c9f6" x="53.338125" y="246.345194" style="stroke: #000000; stroke-width: 0.8"/>
      </g>
     </g>
     <g id="text_8">
      <!-- $0.2 -->
      <g transform="translate(21.845938 250.524334) scale(0.11 -0.11)">
       <defs>
        <path id="DejaVuSans-24" d="M 2163 -941 
L 1850 -941 
L 1847 0 
Q 1519 6 1191 76 
Q 863 147 531 288 
L 531 850 
Q 850 650 1176 548 
Q 1503 447 1850 444 
L 1850 1869 
Q 1159 1981 845 2250 
Q 531 2519 531 2988 
Q 531 3497 872 3790 
Q 1213 4084 1850 4128 
L 1850 4863 
L 2163 4863 
L 2163 4138 
Q 2453 4125 2725 4076 
Q 2997 4028 3256 3944 
L 3256 3397 
Q 2997 3528 2723 3600 
Q 2450 3672 2163 3684 
L 2163 2350 
Q 2872 2241 3206 1959 
Q 3541 1678 3541 1191 
Q 3541 663 3186 358 
Q 2831 53 2163 6 
L 2163 -941 
z
M 1850 2406 
L 1850 3688 
Q 1488 3647 1297 3481 
Q 1106 3316 1106 3041 
Q 1106 2772 1282 2622 
Q 1459 2472 1850 2406 
z
M 2163 1806 
L 2163 453 
Q 2559 506 2761 678 
Q 2963 850 2963 1131 
Q 2963 1406 2770 1568 
Q 2578 1731 2163 1806 
z
" transform="scale(0.015625)"/>
        <path id="DejaVuSans-2e" d="M 684 794 
L 1344 794 
L 1344 0 
L 684 0 
L 684 794 
z
" transform="scale(0.015625)"/>
       </defs>
       <use xlink:href="#DejaVuSans-24"/>
       <use xlink:href="#DejaVuSans-30" transform="translate(63.623047 0)"/>
       <use xlink:href="#DejaVuSans-2e" transform="translate(127.246094 0)"/>
       <use xlink:href="#DejaVuSans-32" transform="translate(159.033203 0)"/>
      </g>
     </g>
    </g>
    <g id="ytick_2">
     <g id="line2d_10">
      <path d="M 53.338125 207.732158 
L 545.483125 207.732158 
" clip-path="url(#pde6419d190)" style="fill: none; stroke: #e2e8f0; stroke-width: 0.6; stroke-linecap: square"/>
     </g>
     <g id="line2d_11">
      <g>
       <use xlink:href="#medecc4c9f6" x="53.338125" y="207.732158" style="stroke: #000000; stroke-width: 0.8"/>
      </g>
     </g>
     <g id="text_9">
      <!-- $0.5 -->
      <g transform="translate(21.845938 211.911299) scale(0.11 -0.11)">
       <use xlink:href="#DejaVuSans-24"/>
       <use xlink:href="#DejaVuSans-30" transform="translate(63.623047 0)"/>
       <use xlink:href="#DejaVuSans-2e" transform="translate(127.246094 0)"/>
       <use xlink:href="#DejaVuSans-35" transform="translate(159.033203 0)"/>
      </g>
     </g>
    </g>
    <g id="ytick_3">
     <g id="line2d_12">
      <path d="M 53.338125 178.522525 
L 545.483125 178.522525 
" clip-path="url(#pde6419d190)" style="fill: none; stroke: #e2e8f0; stroke-width: 0.6; stroke-linecap: square"/>
     </g>
     <g id="line2d_13">
      <g>
       <use xlink:href="#medecc4c9f6" x="53.338125" y="178.522525" style="stroke: #000000; stroke-width: 0.8"/>
      </g>
     </g>
     <g id="text_10">
      <!-- $1 -->
      <g transform="translate(32.340625 182.701665) scale(0.11 -0.11)">
       <defs>
        <path id="DejaVuSans-31" d="M 794 531 
L 1825 531 
L 1825 4091 
L 703 3866 
L 703 4441 
L 1819 4666 
L 2450 4666 
L 2450 531 
L 3481 531 
L 3481 0 
L 794 0 
L 794 531 
z
" transform="scale(0.015625)"/>
       </defs>
       <use xlink:href="#DejaVuSans-24"/>
       <use xlink:href="#DejaVuSans-31" transform="translate(63.623047 0)"/>
      </g>
     </g>
    </g>
    <g id="ytick_4">
     <g id="line2d_14">
      <path d="M 53.338125 149.312891 
L 545.483125 149.312891 
" clip-path="url(#pde6419d190)" style="fill: none; stroke: #e2e8f0; stroke-width: 0.6; stroke-linecap: square"/>
     </g>
     <g id="line2d_15">
      <g>
       <use xlink:href="#medecc4c9f6" x="53.338125" y="149.312891" style="stroke: #000000; stroke-width: 0.8"/>
      </g>
     </g>
     <g id="text_11">
      <!-- $2 -->
      <g transform="translate(32.340625 153.492032) scale(0.11 -0.11)">
       <use xlink:href="#DejaVuSans-24"/>
       <use xlink:href="#DejaVuSans-32" transform="translate(63.623047 0)"/>
      </g>
     </g>
    </g>
    <g id="ytick_5">
     <g id="line2d_16">
      <path d="M 53.338125 110.699856 
L 545.483125 110.699856 
" clip-path="url(#pde6419d190)" style="fill: none; stroke: #e2e8f0; stroke-width: 0.6; stroke-linecap: square"/>
     </g>
     <g id="line2d_17">
      <g>
       <use xlink:href="#medecc4c9f6" x="53.338125" y="110.699856" style="stroke: #000000; stroke-width: 0.8"/>
      </g>
     </g>
     <g id="text_12">
      <!-- $5 -->
      <g transform="translate(32.340625 114.878996) scale(0.11 -0.11)">
       <use xlink:href="#DejaVuSans-24"/>
       <use xlink:href="#DejaVuSans-35" transform="translate(63.623047 0)"/>
      </g>
     </g>
    </g>
    <g id="ytick_6">
     <g id="line2d_18">
      <path d="M 53.338125 81.490222 
L 545.483125 81.490222 
" clip-path="url(#pde6419d190)" style="fill: none; stroke: #e2e8f0; stroke-width: 0.6; stroke-linecap: square"/>
     </g>
     <g id="line2d_19">
      <g>
       <use xlink:href="#medecc4c9f6" x="53.338125" y="81.490222" style="stroke: #000000; stroke-width: 0.8"/>
      </g>
     </g>
     <g id="text_13">
      <!-- $10 -->
      <g transform="translate(25.341875 85.669363) scale(0.11 -0.11)">
       <use xlink:href="#DejaVuSans-24"/>
       <use xlink:href="#DejaVuSans-31" transform="translate(63.623047 0)"/>
       <use xlink:href="#DejaVuSans-30" transform="translate(127.246094 0)"/>
      </g>
     </g>
    </g>
    <g id="ytick_7">
     <g id="line2d_20">
      <path d="M 53.338125 52.280588 
L 545.483125 52.280588 
" clip-path="url(#pde6419d190)" style="fill: none; stroke: #e2e8f0; stroke-width: 0.6; stroke-linecap: square"/>
     </g>
     <g id="line2d_21">
      <g>
       <use xlink:href="#medecc4c9f6" x="53.338125" y="52.280588" style="stroke: #000000; stroke-width: 0.8"/>
      </g>
     </g>
     <g id="text_14">
      <!-- $20 -->
      <g transform="translate(25.341875 56.459729) scale(0.11 -0.11)">
       <use xlink:href="#DejaVuSans-24"/>
       <use xlink:href="#DejaVuSans-32" transform="translate(63.623047 0)"/>
       <use xlink:href="#DejaVuSans-30" transform="translate(127.246094 0)"/>
      </g>
     </g>
    </g>
    <g id="ytick_8">
     <g id="line2d_22">
      <defs>
       <path id="me86cb10c7b" d="M 0 0 
L -2 0 
" style="stroke: #000000; stroke-width: 0.6"/>
      </defs>
      <g>
       <use xlink:href="#me86cb10c7b" x="53.338125" y="229.258653" style="stroke: #000000; stroke-width: 0.6"/>
      </g>
     </g>
    </g>
    <g id="ytick_9">
     <g id="line2d_23">
      <g>
       <use xlink:href="#me86cb10c7b" x="53.338125" y="217.13556" style="stroke: #000000; stroke-width: 0.6"/>
      </g>
     </g>
    </g>
    <g id="ytick_10">
     <g id="line2d_24">
      <g>
       <use xlink:href="#me86cb10c7b" x="53.338125" y="200.04902" style="stroke: #000000; stroke-width: 0.6"/>
      </g>
     </g>
    </g>
    <g id="ytick_11">
     <g id="line2d_25">
      <g>
       <use xlink:href="#me86cb10c7b" x="53.338125" y="193.553018" style="stroke: #000000; stroke-width: 0.6"/>
      </g>
     </g>
    </g>
    <g id="ytick_12">
     <g id="line2d_26">
      <g>
       <use xlink:href="#me86cb10c7b" x="53.338125" y="187.925926" style="stroke: #000000; stroke-width: 0.6"/>
      </g>
     </g>
    </g>
    <g id="ytick_13">
     <g id="line2d_27">
      <g>
       <use xlink:href="#me86cb10c7b" x="53.338125" y="182.962479" style="stroke: #000000; stroke-width: 0.6"/>
      </g>
     </g>
    </g>
    <g id="ytick_14">
     <g id="line2d_28">
      <g>
       <use xlink:href="#me86cb10c7b" x="53.338125" y="132.226351" style="stroke: #000000; stroke-width: 0.6"/>
      </g>
     </g>
    </g>
    <g id="ytick_15">
     <g id="line2d_29">
      <g>
       <use xlink:href="#me86cb10c7b" x="53.338125" y="120.103257" style="stroke: #000000; stroke-width: 0.6"/>
      </g>
     </g>
    </g>
    <g id="ytick_16">
     <g id="line2d_30">
      <g>
       <use xlink:href="#me86cb10c7b" x="53.338125" y="103.016717" style="stroke: #000000; stroke-width: 0.6"/>
      </g>
     </g>
    </g>
    <g id="ytick_17">
     <g id="line2d_31">
      <g>
       <use xlink:href="#me86cb10c7b" x="53.338125" y="96.520716" style="stroke: #000000; stroke-width: 0.6"/>
      </g>
     </g>
    </g>
    <g id="ytick_18">
     <g id="line2d_32">
      <g>
       <use xlink:href="#me86cb10c7b" x="53.338125" y="90.893624" style="stroke: #000000; stroke-width: 0.6"/>
      </g>
     </g>
    </g>
    <g id="ytick_19">
     <g id="line2d_33">
      <g>
       <use xlink:href="#me86cb10c7b" x="53.338125" y="85.930177" style="stroke: #000000; stroke-width: 0.6"/>
      </g>
     </g>
    </g>
    <g id="ytick_20">
     <g id="line2d_34">
      <g>
       <use xlink:href="#me86cb10c7b" x="53.338125" y="35.194048" style="stroke: #000000; stroke-width: 0.6"/>
      </g>
     </g>
    </g>
    <g id="text_15">
     <!-- Price per million tokens (log) -->
     <g style="fill: #0f172a" transform="translate(15.558281 222.368089) rotate(-90) scale(0.11 -0.11)">
      <defs>
       <path id="DejaVuSans-50" d="M 1259 4147 
L 1259 2394 
L 2053 2394 
Q 2494 2394 2734 2622 
Q 2975 2850 2975 3272 
Q 2975 3691 2734 3919 
Q 2494 4147 2053 4147 
L 1259 4147 
z
M 628 4666 
L 2053 4666 
Q 2838 4666 3239 4311 
Q 3641 3956 3641 3272 
Q 3641 2581 3239 2228 
Q 2838 1875 2053 1875 
L 1259 1875 
L 1259 0 
L 628 0 
L 628 4666 
z
" transform="scale(0.015625)"/>
       <path id="DejaVuSans-72" d="M 2631 2963 
Q 2534 3019 2420 3045 
Q 2306 3072 2169 3072 
Q 1681 3072 1420 2755 
Q 1159 2438 1159 1844 
L 1159 0 
L 581 0 
L 581 3500 
L 1159 3500 
L 1159 2956 
Q 1341 3275 1631 3429 
Q 1922 3584 2338 3584 
Q 2397 3584 2469 3576 
Q 2541 3569 2628 3553 
L 2631 2963 
z
" transform="scale(0.015625)"/>
       <path id="DejaVuSans-69" d="M 603 3500 
L 1178 3500 
L 1178 0 
L 603 0 
L 603 3500 
z
M 603 4863 
L 1178 4863 
L 1178 4134 
L 603 4134 
L 603 4863 
z
" transform="scale(0.015625)"/>
       <path id="DejaVuSans-63" d="M 3122 3366 
L 3122 2828 
Q 2878 2963 2633 3030 
Q 2388 3097 2138 3097 
Q 1578 3097 1268 2742 
Q 959 2388 959 1747 
Q 959 1106 1268 751 
Q 1578 397 2138 397 
Q 2388 397 2633 464 
Q 2878 531 3122 666 
L 3122 134 
Q 2881 22 2623 -34 
Q 2366 -91 2075 -91 
Q 1284 -91 818 406 
Q 353 903 353 1747 
Q 353 2603 823 3093 
Q 1294 3584 2113 3584 
Q 2378 3584 2631 3529 
Q 2884 3475 3122 3366 
z
" transform="scale(0.015625)"/>
       <path id="DejaVuSans-65" d="M 3597 1894 
L 3597 1613 
L 953 1613 
Q 991 1019 1311 708 
Q 1631 397 2203 397 
Q 2534 397 2845 478 
Q 3156 559 3463 722 
L 3463 178 
Q 3153 47 2828 -22 
Q 2503 -91 2169 -91 
Q 1331 -91 842 396 
Q 353 884 353 1716 
Q 353 2575 817 3079 
Q 1281 3584 2069 3584 
Q 2775 3584 3186 3129 
Q 3597 2675 3597 1894 
z
M 3022 2063 
Q 3016 2534 2758 2815 
Q 2500 3097 2075 3097 
Q 1594 3097 1305 2825 
Q 1016 2553 972 2059 
L 3022 2063 
z
" transform="scale(0.015625)"/>
       <path id="DejaVuSans-20" transform="scale(0.015625)"/>
       <path id="DejaVuSans-70" d="M 1159 525 
L 1159 -1331 
L 581 -1331 
L 581 3500 
L 1159 3500 
L 1159 2969 
Q 1341 3281 1617 3432 
Q 1894 3584 2278 3584 
Q 2916 3584 3314 3078 
Q 3713 2572 3713 1747 
Q 3713 922 3314 415 
Q 2916 -91 2278 -91 
Q 1894 -91 1617 61 
Q 1341 213 1159 525 
z
M 3116 1747 
Q 3116 2381 2855 2742 
Q 2594 3103 2138 3103 
Q 1681 3103 1420 2742 
Q 1159 2381 1159 1747 
Q 1159 1113 1420 752 
Q 1681 391 2138 391 
Q 2594 391 2855 752 
Q 3116 1113 3116 1747 
z
" transform="scale(0.015625)"/>
       <path id="DejaVuSans-6d" d="M 3328 2828 
Q 3544 3216 3844 3400 
Q 4144 3584 4550 3584 
Q 5097 3584 5394 3201 
Q 5691 2819 5691 2113 
L 5691 0 
L 5113 0 
L 5113 2094 
Q 5113 2597 4934 2840 
Q 4756 3084 4391 3084 
Q 3944 3084 3684 2787 
Q 3425 2491 3425 1978 
L 3425 0 
L 2847 0 
L 2847 2094 
Q 2847 2600 2669 2842 
Q 2491 3084 2119 3084 
Q 1678 3084 1418 2786 
Q 1159 2488 1159 1978 
L 1159 0 
L 581 0 
L 581 3500 
L 1159 3500 
L 1159 2956 
Q 1356 3278 1631 3431 
Q 1906 3584 2284 3584 
Q 2666 3584 2933 3390 
Q 3200 3197 3328 2828 
z
" transform="scale(0.015625)"/>
       <path id="DejaVuSans-6c" d="M 603 4863 
L 1178 4863 
L 1178 0 
L 603 0 
L 603 4863 
z
" transform="scale(0.015625)"/>
       <path id="DejaVuSans-6f" d="M 1959 3097 
Q 1497 3097 1228 2736 
Q 959 2375 959 1747 
Q 959 1119 1226 758 
Q 1494 397 1959 397 
Q 2419 397 2687 759 
Q 2956 1122 2956 1747 
Q 2956 2369 2687 2733 
Q 2419 3097 1959 3097 
z
M 1959 3584 
Q 2709 3584 3137 3096 
Q 3566 2609 3566 1747 
Q 3566 888 3137 398 
Q 2709 -91 1959 -91 
Q 1206 -91 779 398 
Q 353 888 353 1747 
Q 353 2609 779 3096 
Q 1206 3584 1959 3584 
z
" transform="scale(0.015625)"/>
       <path id="DejaVuSans-6e" d="M 3513 2113 
L 3513 0 
L 2938 0 
L 2938 2094 
Q 2938 2591 2744 2837 
Q 2550 3084 2163 3084 
Q 1697 3084 1428 2787 
Q 1159 2491 1159 1978 
L 1159 0 
L 581 0 
L 581 3500 
L 1159 3500 
L 1159 2956 
Q 1366 3272 1645 3428 
Q 1925 3584 2291 3584 
Q 2894 3584 3203 3211 
Q 3513 2838 3513 2113 
z
" transform="scale(0.015625)"/>
       <path id="DejaVuSans-74" d="M 1172 4494 
L 1172 3500 
L 2356 3500 
L 2356 3053 
L 1172 3053 
L 1172 1153 
Q 1172 725 1289 603 
Q 1406 481 1766 481 
L 2356 481 
L 2356 0 
L 1766 0 
Q 1100 0 847 248 
Q 594 497 594 1153 
L 594 3053 
L 172 3053 
L 172 3500 
L 594 3500 
L 594 4494 
L 1172 4494 
z
" transform="scale(0.015625)"/>
       <path id="DejaVuSans-6b" d="M 581 4863 
L 1159 4863 
L 1159 1991 
L 2875 3500 
L 3609 3500 
L 1753 1863 
L 3688 0 
L 2938 0 
L 1159 1709 
L 1159 0 
L 581 0 
L 581 4863 
z
" transform="scale(0.015625)"/>
       <path id="DejaVuSans-73" d="M 2834 3397 
L 2834 2853 
Q 2591 2978 2328 3040 
Q 2066 3103 1784 3103 
Q 1356 3103 1142 2972 
Q 928 2841 928 2578 
Q 928 2378 1081 2264 
Q 1234 2150 1697 2047 
L 1894 2003 
Q 2506 1872 2764 1633 
Q 3022 1394 3022 966 
Q 3022 478 2636 193 
Q 2250 -91 1575 -91 
Q 1294 -91 989 -36 
Q 684 19 347 128 
L 347 722 
Q 666 556 975 473 
Q 1284 391 1588 391 
Q 1994 391 2212 530 
Q 2431 669 2431 922 
Q 2431 1156 2273 1281 
Q 2116 1406 1581 1522 
L 1381 1569 
Q 847 1681 609 1914 
Q 372 2147 372 2553 
Q 372 3047 722 3315 
Q 1072 3584 1716 3584 
Q 2034 3584 2315 3537 
Q 2597 3491 2834 3397 
z
" transform="scale(0.015625)"/>
       <path id="DejaVuSans-28" d="M 1984 4856 
Q 1566 4138 1362 3434 
Q 1159 2731 1159 2009 
Q 1159 1288 1364 580 
Q 1569 -128 1984 -844 
L 1484 -844 
Q 1016 -109 783 600 
Q 550 1309 550 2009 
Q 550 2706 781 3412 
Q 1013 4119 1484 4856 
L 1984 4856 
z
" transform="scale(0.015625)"/>
       <path id="DejaVuSans-67" d="M 2906 1791 
Q 2906 2416 2648 2759 
Q 2391 3103 1925 3103 
Q 1463 3103 1205 2759 
Q 947 2416 947 1791 
Q 947 1169 1205 825 
Q 1463 481 1925 481 
Q 2391 481 2648 825 
Q 2906 1169 2906 1791 
z
M 3481 434 
Q 3481 -459 3084 -895 
Q 2688 -1331 1869 -1331 
Q 1566 -1331 1297 -1286 
Q 1028 -1241 775 -1147 
L 775 -588 
Q 1028 -725 1275 -790 
Q 1522 -856 1778 -856 
Q 2344 -856 2625 -561 
Q 2906 -266 2906 331 
L 2906 616 
Q 2728 306 2450 153 
Q 2172 0 1784 0 
Q 1141 0 747 490 
Q 353 981 353 1791 
Q 353 2603 747 3093 
Q 1141 3584 1784 3584 
Q 2172 3584 2450 3431 
Q 2728 3278 2906 2969 
L 2906 3500 
L 3481 3500 
L 3481 434 
z
" transform="scale(0.015625)"/>
       <path id="DejaVuSans-29" d="M 513 4856 
L 1013 4856 
Q 1481 4119 1714 3412 
Q 1947 2706 1947 2009 
Q 1947 1309 1714 600 
Q 1481 -109 1013 -844 
L 513 -844 
Q 928 -128 1133 580 
Q 1338 1288 1338 2009 
Q 1338 2731 1133 3434 
Q 928 4138 513 4856 
z
" transform="scale(0.015625)"/>
      </defs>
      <use xlink:href="#DejaVuSans-50"/>
      <use xlink:href="#DejaVuSans-72" transform="translate(58.552734 0)"/>
      <use xlink:href="#DejaVuSans-69" transform="translate(99.666016 0)"/>
      <use xlink:href="#DejaVuSans-63" transform="translate(127.449219 0)"/>
      <use xlink:href="#DejaVuSans-65" transform="translate(182.429688 0)"/>
      <use xlink:href="#DejaVuSans-20" transform="translate(243.953125 0)"/>
      <use xlink:href="#DejaVuSans-70" transform="translate(275.740234 0)"/>
      <use xlink:href="#DejaVuSans-65" transform="translate(339.216797 0)"/>
      <use xlink:href="#DejaVuSans-72" transform="translate(400.740234 0)"/>
      <use xlink:href="#DejaVuSans-20" transform="translate(441.853516 0)"/>
      <use xlink:href="#DejaVuSans-6d" transform="translate(473.640625 0)"/>
      <use xlink:href="#DejaVuSans-69" transform="translate(571.052734 0)"/>
      <use xlink:href="#DejaVuSans-6c" transform="translate(598.835938 0)"/>
      <use xlink:href="#DejaVuSans-6c" transform="translate(626.619141 0)"/>
      <use xlink:href="#DejaVuSans-69" transform="translate(654.402344 0)"/>
      <use xlink:href="#DejaVuSans-6f" transform="translate(682.185547 0)"/>
      <use xlink:href="#DejaVuSans-6e" transform="translate(743.367188 0)"/>
      <use xlink:href="#DejaVuSans-20" transform="translate(806.746094 0)"/>
      <use xlink:href="#DejaVuSans-74" transform="translate(838.533203 0)"/>
      <use xlink:href="#DejaVuSans-6f" transform="translate(877.742188 0)"/>
      <use xlink:href="#DejaVuSans-6b" transform="translate(938.923828 0)"/>
      <use xlink:href="#DejaVuSans-65" transform="translate(993.208984 0)"/>
      <use xlink:href="#DejaVuSans-6e" transform="translate(1054.732422 0)"/>
      <use xlink:href="#DejaVuSans-73" transform="translate(1118.111328 0)"/>
      <use xlink:href="#DejaVuSans-20" transform="translate(1170.210938 0)"/>
      <use xlink:href="#DejaVuSans-28" transform="translate(1201.998047 0)"/>
      <use xlink:href="#DejaVuSans-6c" transform="translate(1241.011719 0)"/>
      <use xlink:href="#DejaVuSans-6f" transform="translate(1268.794922 0)"/>
      <use xlink:href="#DejaVuSans-67" transform="translate(1329.976562 0)"/>
      <use xlink:href="#DejaVuSans-29" transform="translate(1393.453125 0)"/>
     </g>
    </g>
   </g>
   <g id="patch_6">
    <path d="M 53.338125 258.468287 
L 53.338125 28.698047 
" style="fill: none; stroke: #cbd5e1; stroke-width: 0.8; stroke-linejoin: miter; stroke-linecap: square"/>
   </g>
   <g id="patch_7">
    <path d="M 53.338125 258.468287 
L 545.483125 258.468287 
" style="fill: none; stroke: #cbd5e1; stroke-width: 0.8; stroke-linejoin: miter; stroke-linecap: square"/>
   </g>
   <g id="line2d_35">
    <path d="M 53.338125 52.280588 
L 94.350208 96.520716 
L 135.362292 139.909489 
L 176.374375 174.506097 
L 217.386458 200.04902 
L 258.398542 212.172113 
L 299.410625 217.13556 
" clip-path="url(#pde6419d190)" style="fill: none; stroke: #2563eb; stroke-width: 2.4; stroke-linecap: round"/>
   </g>
   <g id="line2d_36">
    <path d="M 299.410625 217.13556 
L 340.422708 207.732158 
L 381.434792 214.087924 
L 422.446875 182.962479 
L 463.458958 203.715731 
L 504.471042 158.716293 
L 545.483125 193.553018 
" clip-path="url(#pde6419d190)" style="fill: none; stroke-dasharray: 9.6,4.8; stroke-dashoffset: 0; stroke: #2563eb; stroke-width: 2.4"/>
   </g>
   <g id="text_16">
    <!-- ~$20 / M -->
    <g style="fill: #0f172a" transform="translate(65.64175 34.441187) scale(0.09 -0.09)">
     <defs>
      <path id="DejaVuSans-7e" d="M 4684 2553 
L 4684 1997 
Q 4356 1750 4076 1644 
Q 3797 1538 3494 1538 
Q 3150 1538 2694 1722 
Q 2659 1734 2644 1741 
Q 2622 1750 2575 1766 
Q 2091 1959 1797 1959 
Q 1522 1959 1253 1839 
Q 984 1719 678 1459 
L 678 2016 
Q 1006 2263 1286 2370 
Q 1566 2478 1869 2478 
Q 2213 2478 2672 2291 
Q 2703 2278 2719 2272 
Q 2744 2263 2788 2247 
Q 3272 2053 3566 2053 
Q 3834 2053 4098 2172 
Q 4363 2291 4684 2553 
z
" transform="scale(0.015625)"/>
      <path id="DejaVuSans-2f" d="M 1625 4666 
L 2156 4666 
L 531 -594 
L 0 -594 
L 1625 4666 
z
" transform="scale(0.015625)"/>
      <path id="DejaVuSans-4d" d="M 628 4666 
L 1569 4666 
L 2759 1491 
L 3956 4666 
L 4897 4666 
L 4897 0 
L 4281 0 
L 4281 4097 
L 3078 897 
L 2444 897 
L 1241 4097 
L 1241 0 
L 628 0 
L 628 4666 
z
" transform="scale(0.015625)"/>
     </defs>
     <use xlink:href="#DejaVuSans-7e"/>
     <use xlink:href="#DejaVuSans-24" transform="translate(83.789062 0)"/>
     <use xlink:href="#DejaVuSans-32" transform="translate(147.412109 0)"/>
     <use xlink:href="#DejaVuSans-30" transform="translate(211.035156 0)"/>
     <use xlink:href="#DejaVuSans-20" transform="translate(274.658203 0)"/>
     <use xlink:href="#DejaVuSans-2f" transform="translate(306.445312 0)"/>
     <use xlink:href="#DejaVuSans-20" transform="translate(340.136719 0)"/>
     <use xlink:href="#DejaVuSans-4d" transform="translate(371.923828 0)"/>
    </g>
    <!-- (GPT-4 level, 2023) -->
    <g style="fill: #0f172a" transform="translate(65.64175 44.519218) scale(0.09 -0.09)">
     <defs>
      <path id="DejaVuSans-47" d="M 3809 666 
L 3809 1919 
L 2778 1919 
L 2778 2438 
L 4434 2438 
L 4434 434 
Q 4069 175 3628 42 
Q 3188 -91 2688 -91 
Q 1594 -91 976 548 
Q 359 1188 359 2328 
Q 359 3472 976 4111 
Q 1594 4750 2688 4750 
Q 3144 4750 3555 4637 
Q 3966 4525 4313 4306 
L 4313 3634 
Q 3963 3931 3569 4081 
Q 3175 4231 2741 4231 
Q 1884 4231 1454 3753 
Q 1025 3275 1025 2328 
Q 1025 1384 1454 906 
Q 1884 428 2741 428 
Q 3075 428 3337 486 
Q 3600 544 3809 666 
z
" transform="scale(0.015625)"/>
      <path id="DejaVuSans-54" d="M -19 4666 
L 3928 4666 
L 3928 4134 
L 2272 4134 
L 2272 0 
L 1638 0 
L 1638 4134 
L -19 4134 
L -19 4666 
z
" transform="scale(0.015625)"/>
      <path id="DejaVuSans-2d" d="M 313 2009 
L 1997 2009 
L 1997 1497 
L 313 1497 
L 313 2009 
z
" transform="scale(0.015625)"/>
      <path id="DejaVuSans-76" d="M 191 3500 
L 800 3500 
L 1894 563 
L 2988 3500 
L 3597 3500 
L 2284 0 
L 1503 0 
L 191 3500 
z
" transform="scale(0.015625)"/>
      <path id="DejaVuSans-2c" d="M 750 794 
L 1409 794 
L 1409 256 
L 897 -744 
L 494 -744 
L 750 256 
L 750 794 
z
" transform="scale(0.015625)"/>
     </defs>
     <use xlink:href="#DejaVuSans-28"/>
     <use xlink:href="#DejaVuSans-47" transform="translate(39.013672 0)"/>
     <use xlink:href="#DejaVuSans-50" transform="translate(116.503906 0)"/>
     <use xlink:href="#DejaVuSans-54" transform="translate(176.806641 0)"/>
     <use xlink:href="#DejaVuSans-2d" transform="translate(228.765625 0)"/>
     <use xlink:href="#DejaVuSans-34" transform="translate(264.849609 0)"/>
     <use xlink:href="#DejaVuSans-20" transform="translate(328.472656 0)"/>
     <use xlink:href="#DejaVuSans-6c" transform="translate(360.259766 0)"/>
     <use xlink:href="#DejaVuSans-65" transform="translate(388.042969 0)"/>
     <use xlink:href="#DejaVuSans-76" transform="translate(449.566406 0)"/>
     <use xlink:href="#DejaVuSans-65" transform="translate(508.746094 0)"/>
     <use xlink:href="#DejaVuSans-6c" transform="translate(570.269531 0)"/>
     <use xlink:href="#DejaVuSans-2c" transform="translate(598.052734 0)"/>
     <use xlink:href="#DejaVuSans-20" transform="translate(629.839844 0)"/>
     <use xlink:href="#DejaVuSans-32" transform="translate(661.626953 0)"/>
     <use xlink:href="#DejaVuSans-30" transform="translate(725.25 0)"/>
     <use xlink:href="#DejaVuSans-32" transform="translate(788.873047 0)"/>
     <use xlink:href="#DejaVuSans-33" transform="translate(852.496094 0)"/>
     <use xlink:href="#DejaVuSans-29" transform="translate(916.119141 0)"/>
    </g>
   </g>
   <g id="text_17">
    <!-- ~$0.40 / M (2026) -->
    <g style="fill: #0f172a" transform="translate(307.613042 242.328766) scale(0.09 -0.09)">
     <use xlink:href="#DejaVuSans-7e"/>
     <use xlink:href="#DejaVuSans-24" transform="translate(83.789062 0)"/>
     <use xlink:href="#DejaVuSans-30" transform="translate(147.412109 0)"/>
     <use xlink:href="#DejaVuSans-2e" transform="translate(211.035156 0)"/>
     <use xlink:href="#DejaVuSans-34" transform="translate(242.822266 0)"/>
     <use xlink:href="#DejaVuSans-30" transform="translate(306.445312 0)"/>
     <use xlink:href="#DejaVuSans-20" transform="translate(370.068359 0)"/>
     <use xlink:href="#DejaVuSans-2f" transform="translate(401.855469 0)"/>
     <use xlink:href="#DejaVuSans-20" transform="translate(435.546875 0)"/>
     <use xlink:href="#DejaVuSans-4d" transform="translate(467.333984 0)"/>
     <use xlink:href="#DejaVuSans-20" transform="translate(553.613281 0)"/>
     <use xlink:href="#DejaVuSans-28" transform="translate(585.400391 0)"/>
     <use xlink:href="#DejaVuSans-32" transform="translate(624.414062 0)"/>
     <use xlink:href="#DejaVuSans-30" transform="translate(688.037109 0)"/>
     <use xlink:href="#DejaVuSans-32" transform="translate(751.660156 0)"/>
     <use xlink:href="#DejaVuSans-36" transform="translate(815.283203 0)"/>
     <use xlink:href="#DejaVuSans-29" transform="translate(878.90625 0)"/>
    </g>
   </g>
   <g id="text_18">
    <!-- I. Supply-driven decline -->
    <g style="fill: #64748b" transform="translate(98.806344 250.785148) scale(0.09 -0.09)">
     <defs>
      <path id="DejaVuSans-49" d="M 628 4666 
L 1259 4666 
L 1259 0 
L 628 0 
L 628 4666 
z
" transform="scale(0.015625)"/>
      <path id="DejaVuSans-53" d="M 3425 4513 
L 3425 3897 
Q 3066 4069 2747 4153 
Q 2428 4238 2131 4238 
Q 1616 4238 1336 4038 
Q 1056 3838 1056 3469 
Q 1056 3159 1242 3001 
Q 1428 2844 1947 2747 
L 2328 2669 
Q 3034 2534 3370 2195 
Q 3706 1856 3706 1288 
Q 3706 609 3251 259 
Q 2797 -91 1919 -91 
Q 1588 -91 1214 -16 
Q 841 59 441 206 
L 441 856 
Q 825 641 1194 531 
Q 1563 422 1919 422 
Q 2459 422 2753 634 
Q 3047 847 3047 1241 
Q 3047 1584 2836 1778 
Q 2625 1972 2144 2069 
L 1759 2144 
Q 1053 2284 737 2584 
Q 422 2884 422 3419 
Q 422 4038 858 4394 
Q 1294 4750 2059 4750 
Q 2388 4750 2728 4690 
Q 3069 4631 3425 4513 
z
" transform="scale(0.015625)"/>
      <path id="DejaVuSans-75" d="M 544 1381 
L 544 3500 
L 1119 3500 
L 1119 1403 
Q 1119 906 1312 657 
Q 1506 409 1894 409 
Q 2359 409 2629 706 
Q 2900 1003 2900 1516 
L 2900 3500 
L 3475 3500 
L 3475 0 
L 2900 0 
L 2900 538 
Q 2691 219 2414 64 
Q 2138 -91 1772 -91 
Q 1169 -91 856 284 
Q 544 659 544 1381 
z
M 1991 3584 
L 1991 3584 
z
" transform="scale(0.015625)"/>
      <path id="DejaVuSans-79" d="M 2059 -325 
Q 1816 -950 1584 -1140 
Q 1353 -1331 966 -1331 
L 506 -1331 
L 506 -850 
L 844 -850 
Q 1081 -850 1212 -737 
Q 1344 -625 1503 -206 
L 1606 56 
L 191 3500 
L 800 3500 
L 1894 763 
L 2988 3500 
L 3597 3500 
L 2059 -325 
z
" transform="scale(0.015625)"/>
      <path id="DejaVuSans-64" d="M 2906 2969 
L 2906 4863 
L 3481 4863 
L 3481 0 
L 2906 0 
L 2906 525 
Q 2725 213 2448 61 
Q 2172 -91 1784 -91 
Q 1150 -91 751 415 
Q 353 922 353 1747 
Q 353 2572 751 3078 
Q 1150 3584 1784 3584 
Q 2172 3584 2448 3432 
Q 2725 3281 2906 2969 
z
M 947 1747 
Q 947 1113 1208 752 
Q 1469 391 1925 391 
Q 2381 391 2643 752 
Q 2906 1113 2906 1747 
Q 2906 2381 2643 2742 
Q 2381 3103 1925 3103 
Q 1469 3103 1208 2742 
Q 947 2381 947 1747 
z
" transform="scale(0.015625)"/>
     </defs>
     <use xlink:href="#DejaVuSans-49"/>
     <use xlink:href="#DejaVuSans-2e" transform="translate(29.492188 0)"/>
     <use xlink:href="#DejaVuSans-20" transform="translate(61.279297 0)"/>
     <use xlink:href="#DejaVuSans-53" transform="translate(93.066406 0)"/>
     <use xlink:href="#DejaVuSans-75" transform="translate(156.542969 0)"/>
     <use xlink:href="#DejaVuSans-70" transform="translate(219.921875 0)"/>
     <use xlink:href="#DejaVuSans-70" transform="translate(283.398438 0)"/>
     <use xlink:href="#DejaVuSans-6c" transform="translate(346.875 0)"/>
     <use xlink:href="#DejaVuSans-79" transform="translate(374.658203 0)"/>
     <use xlink:href="#DejaVuSans-2d" transform="translate(432.087891 0)"/>
     <use xlink:href="#DejaVuSans-64" transform="translate(468.171875 0)"/>
     <use xlink:href="#DejaVuSans-72" transform="translate(531.648438 0)"/>
     <use xlink:href="#DejaVuSans-69" transform="translate(572.761719 0)"/>
     <use xlink:href="#DejaVuSans-76" transform="translate(600.544922 0)"/>
     <use xlink:href="#DejaVuSans-65" transform="translate(659.724609 0)"/>
     <use xlink:href="#DejaVuSans-6e" transform="translate(721.248047 0)"/>
     <use xlink:href="#DejaVuSans-20" transform="translate(784.626953 0)"/>
     <use xlink:href="#DejaVuSans-64" transform="translate(816.414062 0)"/>
     <use xlink:href="#DejaVuSans-65" transform="translate(879.890625 0)"/>
     <use xlink:href="#DejaVuSans-63" transform="translate(941.414062 0)"/>
     <use xlink:href="#DejaVuSans-6c" transform="translate(996.394531 0)"/>
     <use xlink:href="#DejaVuSans-69" transform="translate(1024.177734 0)"/>
     <use xlink:href="#DejaVuSans-6e" transform="translate(1051.960938 0)"/>
     <use xlink:href="#DejaVuSans-65" transform="translate(1115.339844 0)"/>
    </g>
   </g>
   <g id="text_19">
    <!-- II. Rebalancing -->
    <g style="fill: #64748b" transform="translate(286.800885 250.785148) scale(0.09 -0.09)">
     <defs>
      <path id="DejaVuSans-52" d="M 2841 2188 
Q 3044 2119 3236 1894 
Q 3428 1669 3622 1275 
L 4263 0 
L 3584 0 
L 2988 1197 
Q 2756 1666 2539 1819 
Q 2322 1972 1947 1972 
L 1259 1972 
L 1259 0 
L 628 0 
L 628 4666 
L 2053 4666 
Q 2853 4666 3247 4331 
Q 3641 3997 3641 3322 
Q 3641 2881 3436 2590 
Q 3231 2300 2841 2188 
z
M 1259 4147 
L 1259 2491 
L 2053 2491 
Q 2509 2491 2742 2702 
Q 2975 2913 2975 3322 
Q 2975 3731 2742 3939 
Q 2509 4147 2053 4147 
L 1259 4147 
z
" transform="scale(0.015625)"/>
      <path id="DejaVuSans-62" d="M 3116 1747 
Q 3116 2381 2855 2742 
Q 2594 3103 2138 3103 
Q 1681 3103 1420 2742 
Q 1159 2381 1159 1747 
Q 1159 1113 1420 752 
Q 1681 391 2138 391 
Q 2594 391 2855 752 
Q 3116 1113 3116 1747 
z
M 1159 2969 
Q 1341 3281 1617 3432 
Q 1894 3584 2278 3584 
Q 2916 3584 3314 3078 
Q 3713 2572 3713 1747 
Q 3713 922 3314 415 
Q 2916 -91 2278 -91 
Q 1894 -91 1617 61 
Q 1341 213 1159 525 
L 1159 0 
L 581 0 
L 581 4863 
L 1159 4863 
L 1159 2969 
z
" transform="scale(0.015625)"/>
      <path id="DejaVuSans-61" d="M 2194 1759 
Q 1497 1759 1228 1600 
Q 959 1441 959 1056 
Q 959 750 1161 570 
Q 1363 391 1709 391 
Q 2188 391 2477 730 
Q 2766 1069 2766 1631 
L 2766 1759 
L 2194 1759 
z
M 3341 1997 
L 3341 0 
L 2766 0 
L 2766 531 
Q 2569 213 2275 61 
Q 1981 -91 1556 -91 
Q 1019 -91 701 211 
Q 384 513 384 1019 
Q 384 1609 779 1909 
Q 1175 2209 1959 2209 
L 2766 2209 
L 2766 2266 
Q 2766 2663 2505 2880 
Q 2244 3097 1772 3097 
Q 1472 3097 1187 3025 
Q 903 2953 641 2809 
L 641 3341 
Q 956 3463 1253 3523 
Q 1550 3584 1831 3584 
Q 2591 3584 2966 3190 
Q 3341 2797 3341 1997 
z
" transform="scale(0.015625)"/>
     </defs>
     <use xlink:href="#DejaVuSans-49"/>
     <use xlink:href="#DejaVuSans-49" transform="translate(29.492188 0)"/>
     <use xlink:href="#DejaVuSans-2e" transform="translate(58.984375 0)"/>
     <use xlink:href="#DejaVuSans-20" transform="translate(90.771484 0)"/>
     <use xlink:href="#DejaVuSans-52" transform="translate(122.558594 0)"/>
     <use xlink:href="#DejaVuSans-65" transform="translate(187.541016 0)"/>
     <use xlink:href="#DejaVuSans-62" transform="translate(249.064453 0)"/>
     <use xlink:href="#DejaVuSans-61" transform="translate(312.541016 0)"/>
     <use xlink:href="#DejaVuSans-6c" transform="translate(373.820312 0)"/>
     <use xlink:href="#DejaVuSans-61" transform="translate(401.603516 0)"/>
     <use xlink:href="#DejaVuSans-6e" transform="translate(462.882812 0)"/>
     <use xlink:href="#DejaVuSans-63" transform="translate(526.261719 0)"/>
     <use xlink:href="#DejaVuSans-69" transform="translate(581.242188 0)"/>
     <use xlink:href="#DejaVuSans-6e" transform="translate(609.025391 0)"/>
     <use xlink:href="#DejaVuSans-67" transform="translate(672.404297 0)"/>
    </g>
   </g>
   <g id="text_20">
    <!-- III. Demand-driven volatility -->
    <g style="fill: #64748b" transform="translate(400.87099 250.785148) scale(0.09 -0.09)">
     <defs>
      <path id="DejaVuSans-44" d="M 1259 4147 
L 1259 519 
L 2022 519 
Q 2988 519 3436 956 
Q 3884 1394 3884 2338 
Q 3884 3275 3436 3711 
Q 2988 4147 2022 4147 
L 1259 4147 
z
M 628 4666 
L 1925 4666 
Q 3281 4666 3915 4102 
Q 4550 3538 4550 2338 
Q 4550 1131 3912 565 
Q 3275 0 1925 0 
L 628 0 
L 628 4666 
z
" transform="scale(0.015625)"/>
     </defs>
     <use xlink:href="#DejaVuSans-49"/>
     <use xlink:href="#DejaVuSans-49" transform="translate(29.492188 0)"/>
     <use xlink:href="#DejaVuSans-49" transform="translate(58.984375 0)"/>
     <use xlink:href="#DejaVuSans-2e" transform="translate(88.476562 0)"/>
     <use xlink:href="#DejaVuSans-20" transform="translate(120.263672 0)"/>
     <use xlink:href="#DejaVuSans-44" transform="translate(152.050781 0)"/>
     <use xlink:href="#DejaVuSans-65" transform="translate(229.052734 0)"/>
     <use xlink:href="#DejaVuSans-6d" transform="translate(290.576172 0)"/>
     <use xlink:href="#DejaVuSans-61" transform="translate(387.988281 0)"/>
     <use xlink:href="#DejaVuSans-6e" transform="translate(449.267578 0)"/>
     <use xlink:href="#DejaVuSans-64" transform="translate(512.646484 0)"/>
     <use xlink:href="#DejaVuSans-2d" transform="translate(576.123047 0)"/>
     <use xlink:href="#DejaVuSans-64" transform="translate(612.207031 0)"/>
     <use xlink:href="#DejaVuSans-72" transform="translate(675.683594 0)"/>
     <use xlink:href="#DejaVuSans-69" transform="translate(716.796875 0)"/>
     <use xlink:href="#DejaVuSans-76" transform="translate(744.580078 0)"/>
     <use xlink:href="#DejaVuSans-65" transform="translate(803.759766 0)"/>
     <use xlink:href="#DejaVuSans-6e" transform="translate(865.283203 0)"/>
     <use xlink:href="#DejaVuSans-20" transform="translate(928.662109 0)"/>
     <use xlink:href="#DejaVuSans-76" transform="translate(960.449219 0)"/>
     <use xlink:href="#DejaVuSans-6f" transform="translate(1019.628906 0)"/>
     <use xlink:href="#DejaVuSans-6c" transform="translate(1080.810547 0)"/>
     <use xlink:href="#DejaVuSans-61" transform="translate(1108.59375 0)"/>
     <use xlink:href="#DejaVuSans-74" transform="translate(1169.873047 0)"/>
     <use xlink:href="#DejaVuSans-69" transform="translate(1209.082031 0)"/>
     <use xlink:href="#DejaVuSans-6c" transform="translate(1236.865234 0)"/>
     <use xlink:href="#DejaVuSans-69" transform="translate(1264.648438 0)"/>
     <use xlink:href="#DejaVuSans-74" transform="translate(1292.431641 0)"/>
     <use xlink:href="#DejaVuSans-79" transform="translate(1331.640625 0)"/>
    </g>
   </g>
   <g id="text_21">
    <!-- Decline anchored to reported figures; Phase III is illustrative. -->
    <g style="fill: #64748b" transform="translate(53.338125 295.231525) scale(0.085 -0.085)">
     <defs>
      <path id="DejaVuSans-68" d="M 3513 2113 
L 3513 0 
L 2938 0 
L 2938 2094 
Q 2938 2591 2744 2837 
Q 2550 3084 2163 3084 
Q 1697 3084 1428 2787 
Q 1159 2491 1159 1978 
L 1159 0 
L 581 0 
L 581 4863 
L 1159 4863 
L 1159 2956 
Q 1366 3272 1645 3428 
Q 1925 3584 2291 3584 
Q 2894 3584 3203 3211 
Q 3513 2838 3513 2113 
z
" transform="scale(0.015625)"/>
      <path id="DejaVuSans-66" d="M 2375 4863 
L 2375 4384 
L 1825 4384 
Q 1516 4384 1395 4259 
Q 1275 4134 1275 3809 
L 1275 3500 
L 2222 3500 
L 2222 3053 
L 1275 3053 
L 1275 0 
L 697 0 
L 697 3053 
L 147 3053 
L 147 3500 
L 697 3500 
L 697 3744 
Q 697 4328 969 4595 
Q 1241 4863 1831 4863 
L 2375 4863 
z
" transform="scale(0.015625)"/>
      <path id="DejaVuSans-3b" d="M 750 3309 
L 1409 3309 
L 1409 2516 
L 750 2516 
L 750 3309 
z
M 750 794 
L 1409 794 
L 1409 256 
L 897 -744 
L 494 -744 
L 750 256 
L 750 794 
z
" transform="scale(0.015625)"/>
     </defs>
     <use xlink:href="#DejaVuSans-44"/>
     <use xlink:href="#DejaVuSans-65" transform="translate(77.001953 0)"/>
     <use xlink:href="#DejaVuSans-63" transform="translate(138.525391 0)"/>
     <use xlink:href="#DejaVuSans-6c" transform="translate(193.505859 0)"/>
     <use xlink:href="#DejaVuSans-69" transform="translate(221.289062 0)"/>
     <use xlink:href="#DejaVuSans-6e" transform="translate(249.072266 0)"/>
     <use xlink:href="#DejaVuSans-65" transform="translate(312.451172 0)"/>
     <use xlink:href="#DejaVuSans-20" transform="translate(373.974609 0)"/>
     <use xlink:href="#DejaVuSans-61" transform="translate(405.761719 0)"/>
     <use xlink:href="#DejaVuSans-6e" transform="translate(467.041016 0)"/>
     <use xlink:href="#DejaVuSans-63" transform="translate(530.419922 0)"/>
     <use xlink:href="#DejaVuSans-68" transform="translate(585.400391 0)"/>
     <use xlink:href="#DejaVuSans-6f" transform="translate(648.779297 0)"/>
     <use xlink:href="#DejaVuSans-72" transform="translate(709.960938 0)"/>
     <use xlink:href="#DejaVuSans-65" transform="translate(748.824219 0)"/>
     <use xlink:href="#DejaVuSans-64" transform="translate(810.347656 0)"/>
     <use xlink:href="#DejaVuSans-20" transform="translate(873.824219 0)"/>
     <use xlink:href="#DejaVuSans-74" transform="translate(905.611328 0)"/>
     <use xlink:href="#DejaVuSans-6f" transform="translate(944.820312 0)"/>
     <use xlink:href="#DejaVuSans-20" transform="translate(1006.001953 0)"/>
     <use xlink:href="#DejaVuSans-72" transform="translate(1037.789062 0)"/>
     <use xlink:href="#DejaVuSans-65" transform="translate(1076.652344 0)"/>
     <use xlink:href="#DejaVuSans-70" transform="translate(1138.175781 0)"/>
     <use xlink:href="#DejaVuSans-6f" transform="translate(1201.652344 0)"/>
     <use xlink:href="#DejaVuSans-72" transform="translate(1262.833984 0)"/>
     <use xlink:href="#DejaVuSans-74" transform="translate(1303.947266 0)"/>
     <use xlink:href="#DejaVuSans-65" transform="translate(1343.15625 0)"/>
     <use xlink:href="#DejaVuSans-64" transform="translate(1404.679688 0)"/>
     <use xlink:href="#DejaVuSans-20" transform="translate(1468.15625 0)"/>
     <use xlink:href="#DejaVuSans-66" transform="translate(1499.943359 0)"/>
     <use xlink:href="#DejaVuSans-69" transform="translate(1535.148438 0)"/>
     <use xlink:href="#DejaVuSans-67" transform="translate(1562.931641 0)"/>
     <use xlink:href="#DejaVuSans-75" transform="translate(1626.408203 0)"/>
     <use xlink:href="#DejaVuSans-72" transform="translate(1689.787109 0)"/>
     <use xlink:href="#DejaVuSans-65" transform="translate(1728.650391 0)"/>
     <use xlink:href="#DejaVuSans-73" transform="translate(1790.173828 0)"/>
     <use xlink:href="#DejaVuSans-3b" transform="translate(1842.273438 0)"/>
     <use xlink:href="#DejaVuSans-20" transform="translate(1875.964844 0)"/>
     <use xlink:href="#DejaVuSans-50" transform="translate(1907.751953 0)"/>
     <use xlink:href="#DejaVuSans-68" transform="translate(1968.054688 0)"/>
     <use xlink:href="#DejaVuSans-61" transform="translate(2031.433594 0)"/>
     <use xlink:href="#DejaVuSans-73" transform="translate(2092.712891 0)"/>
     <use xlink:href="#DejaVuSans-65" transform="translate(2144.8125 0)"/>
     <use xlink:href="#DejaVuSans-20" transform="translate(2206.335938 0)"/>
     <use xlink:href="#DejaVuSans-49" transform="translate(2238.123047 0)"/>
     <use xlink:href="#DejaVuSans-49" transform="translate(2267.615234 0)"/>
     <use xlink:href="#DejaVuSans-49" transform="translate(2297.107422 0)"/>
     <use xlink:href="#DejaVuSans-20" transform="translate(2326.599609 0)"/>
     <use xlink:href="#DejaVuSans-69" transform="translate(2358.386719 0)"/>
     <use xlink:href="#DejaVuSans-73" transform="translate(2386.169922 0)"/>
     <use xlink:href="#DejaVuSans-20" transform="translate(2438.269531 0)"/>
     <use xlink:href="#DejaVuSans-69" transform="translate(2470.056641 0)"/>
     <use xlink:href="#DejaVuSans-6c" transform="translate(2497.839844 0)"/>
     <use xlink:href="#DejaVuSans-6c" transform="translate(2525.623047 0)"/>
     <use xlink:href="#DejaVuSans-75" transform="translate(2553.40625 0)"/>
     <use xlink:href="#DejaVuSans-73" transform="translate(2616.785156 0)"/>
     <use xlink:href="#DejaVuSans-74" transform="translate(2668.884766 0)"/>
     <use xlink:href="#DejaVuSans-72" transform="translate(2708.09375 0)"/>
     <use xlink:href="#DejaVuSans-61" transform="translate(2749.207031 0)"/>
     <use xlink:href="#DejaVuSans-74" transform="translate(2810.486328 0)"/>
     <use xlink:href="#DejaVuSans-69" transform="translate(2849.695312 0)"/>
     <use xlink:href="#DejaVuSans-76" transform="translate(2877.478516 0)"/>
     <use xlink:href="#DejaVuSans-65" transform="translate(2936.658203 0)"/>
     <use xlink:href="#DejaVuSans-2e" transform="translate(2998.181641 0)"/>
    </g>
   </g>
   <g id="text_22">
    <!-- Token prices: a steep one-way fall, then two-way swings -->
    <g style="fill: #0f172a" transform="translate(53.338125 16.698047) scale(0.125 -0.125)">
     <defs>
      <path id="DejaVuSans-3a" d="M 750 794 
L 1409 794 
L 1409 0 
L 750 0 
L 750 794 
z
M 750 3309 
L 1409 3309 
L 1409 2516 
L 750 2516 
L 750 3309 
z
" transform="scale(0.015625)"/>
      <path id="DejaVuSans-77" d="M 269 3500 
L 844 3500 
L 1563 769 
L 2278 3500 
L 2956 3500 
L 3675 769 
L 4391 3500 
L 4966 3500 
L 4050 0 
L 3372 0 
L 2619 2869 
L 1863 0 
L 1184 0 
L 269 3500 
z
" transform="scale(0.015625)"/>
     </defs>
     <use xlink:href="#DejaVuSans-54"/>
     <use xlink:href="#DejaVuSans-6f" transform="translate(44.083984 0)"/>
     <use xlink:href="#DejaVuSans-6b" transform="translate(105.265625 0)"/>
     <use xlink:href="#DejaVuSans-65" transform="translate(159.550781 0)"/>
     <use xlink:href="#DejaVuSans-6e" transform="translate(221.074219 0)"/>
     <use xlink:href="#DejaVuSans-20" transform="translate(284.453125 0)"/>
     <use xlink:href="#DejaVuSans-70" transform="translate(316.240234 0)"/>
     <use xlink:href="#DejaVuSans-72" transform="translate(379.716797 0)"/>
     <use xlink:href="#DejaVuSans-69" transform="translate(420.830078 0)"/>
     <use xlink:href="#DejaVuSans-63" transform="translate(448.613281 0)"/>
     <use xlink:href="#DejaVuSans-65" transform="translate(503.59375 0)"/>
     <use xlink:href="#DejaVuSans-73" transform="translate(565.117188 0)"/>
     <use xlink:href="#DejaVuSans-3a" transform="translate(617.216797 0)"/>
     <use xlink:href="#DejaVuSans-20" transform="translate(650.908203 0)"/>
     <use xlink:href="#DejaVuSans-61" transform="translate(682.695312 0)"/>
     <use xlink:href="#DejaVuSans-20" transform="translate(743.974609 0)"/>
     <use xlink:href="#DejaVuSans-73" transform="translate(775.761719 0)"/>
     <use xlink:href="#DejaVuSans-74" transform="translate(827.861328 0)"/>
     <use xlink:href="#DejaVuSans-65" transform="translate(867.070312 0)"/>
     <use xlink:href="#DejaVuSans-65" transform="translate(928.59375 0)"/>
     <use xlink:href="#DejaVuSans-70" transform="translate(990.117188 0)"/>
     <use xlink:href="#DejaVuSans-20" transform="translate(1053.59375 0)"/>
     <use xlink:href="#DejaVuSans-6f" transform="translate(1085.380859 0)"/>
     <use xlink:href="#DejaVuSans-6e" transform="translate(1146.5625 0)"/>
     <use xlink:href="#DejaVuSans-65" transform="translate(1209.941406 0)"/>
     <use xlink:href="#DejaVuSans-2d" transform="translate(1271.464844 0)"/>
     <use xlink:href="#DejaVuSans-77" transform="translate(1307.548828 0)"/>
     <use xlink:href="#DejaVuSans-61" transform="translate(1389.335938 0)"/>
     <use xlink:href="#DejaVuSans-79" transform="translate(1450.615234 0)"/>
     <use xlink:href="#DejaVuSans-20" transform="translate(1509.794922 0)"/>
     <use xlink:href="#DejaVuSans-66" transform="translate(1541.582031 0)"/>
     <use xlink:href="#DejaVuSans-61" transform="translate(1576.787109 0)"/>
     <use xlink:href="#DejaVuSans-6c" transform="translate(1638.066406 0)"/>
     <use xlink:href="#DejaVuSans-6c" transform="translate(1665.849609 0)"/>
     <use xlink:href="#DejaVuSans-2c" transform="translate(1693.632812 0)"/>
     <use xlink:href="#DejaVuSans-20" transform="translate(1725.419922 0)"/>
     <use xlink:href="#DejaVuSans-74" transform="translate(1757.207031 0)"/>
     <use xlink:href="#DejaVuSans-68" transform="translate(1796.416016 0)"/>
     <use xlink:href="#DejaVuSans-65" transform="translate(1859.794922 0)"/>
     <use xlink:href="#DejaVuSans-6e" transform="translate(1921.318359 0)"/>
     <use xlink:href="#DejaVuSans-20" transform="translate(1984.697266 0)"/>
     <use xlink:href="#DejaVuSans-74" transform="translate(2016.484375 0)"/>
     <use xlink:href="#DejaVuSans-77" transform="translate(2055.693359 0)"/>
     <use xlink:href="#DejaVuSans-6f" transform="translate(2137.480469 0)"/>
     <use xlink:href="#DejaVuSans-2d" transform="translate(2200.537109 0)"/>
     <use xlink:href="#DejaVuSans-77" transform="translate(2236.621094 0)"/>
     <use xlink:href="#DejaVuSans-61" transform="translate(2318.408203 0)"/>
     <use xlink:href="#DejaVuSans-79" transform="translate(2379.6875 0)"/>
     <use xlink:href="#DejaVuSans-20" transform="translate(2438.867188 0)"/>
     <use xlink:href="#DejaVuSans-73" transform="translate(2470.654297 0)"/>
     <use xlink:href="#DejaVuSans-77" transform="translate(2522.753906 0)"/>
     <use xlink:href="#DejaVuSans-69" transform="translate(2604.541016 0)"/>
     <use xlink:href="#DejaVuSans-6e" transform="translate(2632.324219 0)"/>
     <use xlink:href="#DejaVuSans-67" transform="translate(2695.703125 0)"/>
     <use xlink:href="#DejaVuSans-73" transform="translate(2759.179688 0)"/>
    </g>
   </g>
   <g id="PathCollection_1">
    <defs>
     <path id="mfcf181620a" d="M 0 2.645751 
C 0.701661 2.645751 1.374679 2.366978 1.870829 1.870829 
C 2.366978 1.374679 2.645751 0.701661 2.645751 0 
C 2.645751 -0.701661 2.366978 -1.374679 1.870829 -1.870829 
C 1.374679 -2.366978 0.701661 -2.645751 0 -2.645751 
C -0.701661 -2.645751 -1.374679 -2.366978 -1.870829 -1.870829 
C -2.366978 -1.374679 -2.645751 -0.701661 -2.645751 0 
C -2.645751 0.701661 -2.366978 1.374679 -1.870829 1.870829 
C -1.374679 2.366978 -0.701661 2.645751 0 2.645751 
z
" style="stroke: #2563eb"/>
    </defs>
    <g clip-path="url(#pde6419d190)">
     <use xlink:href="#mfcf181620a" x="53.338125" y="52.280588" style="fill: #2563eb; stroke: #2563eb"/>
     <use xlink:href="#mfcf181620a" x="299.410625" y="217.13556" style="fill: #2563eb; stroke: #2563eb"/>
    </g>
   </g>
  </g>
 </g>
 <defs>
  <clipPath id="pde6419d190">
   <rect x="53.338125" y="28.698047" width="492.145" height="229.77024"/>
  </clipPath>
 </defs>
</svg>
