<?xml version="1.0" encoding="utf-8" standalone="no"?>
<!DOCTYPE svg PUBLIC "-//W3C//DTD SVG 1.1//EN"
  "http://www.w3.org/Graphics/SVG/1.1/DTD/svg11.dtd">
<svg xmlns:xlink="http://www.w3.org/1999/xlink" width="566.625938pt" height="304.19926pt" viewBox="0 0 566.625938 304.19926" xmlns="http://www.w3.org/2000/svg" version="1.1">
 <metadata>
  <rdf:RDF xmlns:dc="http://purl.org/dc/elements/1.1/" xmlns:cc="http://creativecommons.org/ns#" xmlns:rdf="http://www.w3.org/1999/02/22-rdf-syntax-ns#">
   <cc:Work>
    <dc:type rdf:resource="http://purl.org/dc/dcmitype/StillImage"/>
    <dc:date>2026-06-25T02:21:42.716886</dc:date>
    <dc:format>image/svg+xml</dc:format>
    <dc:creator>
     <cc:Agent>
      <dc:title>Matplotlib v3.10.8, https://matplotlib.org/</dc:title>
     </cc:Agent>
    </dc:creator>
   </cc:Work>
  </rdf:RDF>
 </metadata>
 <defs>
  <style type="text/css">*{stroke-linejoin: round; stroke-linecap: butt}</style>
 </defs>
 <g id="figure_1">
  <g id="patch_1">
   <path d="M 0 304.19926 
L 566.625938 304.19926 
L 566.625938 0 
L 0 0 
z
" style="fill: #ffffff"/>
  </g>
  <g id="axes_1">
   <g id="patch_2">
    <path d="M 42.843438 258.468287 
L 545.428437 258.468287 
L 545.428437 28.698047 
L 42.843438 28.698047 
z
" style="fill: #ffffff"/>
   </g>
   <g id="FillBetweenPolyCollection_1">
    <defs>
     <path id="m1dad075760" d="M 42.843438 -49.109947 
L 42.843438 -49.109947 
L 84.725521 -49.95469 
L 126.607604 -50.968383 
L 168.489687 -52.151024 
L 210.371771 -53.840511 
L 252.253854 -55.867895 
L 294.135937 -58.233177 
L 336.018021 -61.274254 
L 377.900104 -64.991125 
L 419.782188 -69.383792 
L 461.664271 -75.128048 
L 503.546354 -82.223893 
L 545.428437 -91.009226 
L 545.428437 -261.985316 
L 545.428437 -261.985316 
L 503.546354 -197.784808 
L 461.664271 -153.858145 
L 419.782188 -120.068403 
L 377.900104 -99.794559 
L 336.018021 -82.899688 
L 294.135937 -72.762766 
L 252.253854 -64.653228 
L 210.371771 -59.246869 
L 168.489687 -55.1921 
L 126.607604 -52.488921 
L 84.725521 -50.461537 
L 42.843438 -49.109947 
z
" style="stroke: #fde2e2; stroke-opacity: 0.7"/>
    </defs>
    <g clip-path="url(#p788e68f058)">
     <use xlink:href="#m1dad075760" x="0" y="304.19926" style="fill: #fde2e2; fill-opacity: 0.7; stroke: #fde2e2; stroke-opacity: 0.7"/>
    </g>
   </g>
   <g id="matplotlib.axis_1">
    <g id="xtick_1">
     <g id="line2d_1">
      <defs>
       <path id="m7ddb43615a" d="M 0 0 
L 0 3.5 
" style="stroke: #000000; stroke-width: 0.8"/>
      </defs>
      <g>
       <use xlink:href="#m7ddb43615a" x="42.843438" y="258.468287" style="stroke: #000000; stroke-width: 0.8"/>
      </g>
     </g>
     <g id="text_1">
      <!-- 2023 -->
      <g transform="translate(28.845938 273.826568) scale(0.11 -0.11)">
       <defs>
        <path id="DejaVuSans-32" d="M 1228 531 
L 3431 531 
L 3431 0 
L 469 0 
L 469 531 
Q 828 903 1448 1529 
Q 2069 2156 2228 2338 
Q 2531 2678 2651 2914 
Q 2772 3150 2772 3378 
Q 2772 3750 2511 3984 
Q 2250 4219 1831 4219 
Q 1534 4219 1204 4116 
Q 875 4013 500 3803 
L 500 4441 
Q 881 4594 1212 4672 
Q 1544 4750 1819 4750 
Q 2544 4750 2975 4387 
Q 3406 4025 3406 3419 
Q 3406 3131 3298 2873 
Q 3191 2616 2906 2266 
Q 2828 2175 2409 1742 
Q 1991 1309 1228 531 
z
" transform="scale(0.015625)"/>
        <path id="DejaVuSans-30" d="M 2034 4250 
Q 1547 4250 1301 3770 
Q 1056 3291 1056 2328 
Q 1056 1369 1301 889 
Q 1547 409 2034 409 
Q 2525 409 2770 889 
Q 3016 1369 3016 2328 
Q 3016 3291 2770 3770 
Q 2525 4250 2034 4250 
z
M 2034 4750 
Q 2819 4750 3233 4129 
Q 3647 3509 3647 2328 
Q 3647 1150 3233 529 
Q 2819 -91 2034 -91 
Q 1250 -91 836 529 
Q 422 1150 422 2328 
Q 422 3509 836 4129 
Q 1250 4750 2034 4750 
z
" transform="scale(0.015625)"/>
        <path id="DejaVuSans-33" d="M 2597 2516 
Q 3050 2419 3304 2112 
Q 3559 1806 3559 1356 
Q 3559 666 3084 287 
Q 2609 -91 1734 -91 
Q 1441 -91 1130 -33 
Q 819 25 488 141 
L 488 750 
Q 750 597 1062 519 
Q 1375 441 1716 441 
Q 2309 441 2620 675 
Q 2931 909 2931 1356 
Q 2931 1769 2642 2001 
Q 2353 2234 1838 2234 
L 1294 2234 
L 1294 2753 
L 1863 2753 
Q 2328 2753 2575 2939 
Q 2822 3125 2822 3475 
Q 2822 3834 2567 4026 
Q 2313 4219 1838 4219 
Q 1578 4219 1281 4162 
Q 984 4106 628 3988 
L 628 4550 
Q 988 4650 1302 4700 
Q 1616 4750 1894 4750 
Q 2613 4750 3031 4423 
Q 3450 4097 3450 3541 
Q 3450 3153 3228 2886 
Q 3006 2619 2597 2516 
z
" transform="scale(0.015625)"/>
       </defs>
       <use xlink:href="#DejaVuSans-32"/>
       <use xlink:href="#DejaVuSans-30" transform="translate(63.623047 0)"/>
       <use xlink:href="#DejaVuSans-32" transform="translate(127.246094 0)"/>
       <use xlink:href="#DejaVuSans-33" transform="translate(190.869141 0)"/>
      </g>
     </g>
    </g>
    <g id="xtick_2">
     <g id="line2d_2">
      <g>
       <use xlink:href="#m7ddb43615a" x="126.607604" y="258.468287" style="stroke: #000000; stroke-width: 0.8"/>
      </g>
     </g>
     <g id="text_2">
      <!-- 2024 -->
      <g transform="translate(112.610104 273.826568) scale(0.11 -0.11)">
       <defs>
        <path id="DejaVuSans-34" d="M 2419 4116 
L 825 1625 
L 2419 1625 
L 2419 4116 
z
M 2253 4666 
L 3047 4666 
L 3047 1625 
L 3713 1625 
L 3713 1100 
L 3047 1100 
L 3047 0 
L 2419 0 
L 2419 1100 
L 313 1100 
L 313 1709 
L 2253 4666 
z
" transform="scale(0.015625)"/>
       </defs>
       <use xlink:href="#DejaVuSans-32"/>
       <use xlink:href="#DejaVuSans-30" transform="translate(63.623047 0)"/>
       <use xlink:href="#DejaVuSans-32" transform="translate(127.246094 0)"/>
       <use xlink:href="#DejaVuSans-34" transform="translate(190.869141 0)"/>
      </g>
     </g>
    </g>
    <g id="xtick_3">
     <g id="line2d_3">
      <g>
       <use xlink:href="#m7ddb43615a" x="210.371771" y="258.468287" style="stroke: #000000; stroke-width: 0.8"/>
      </g>
     </g>
     <g id="text_3">
      <!-- 2025 -->
      <g transform="translate(196.374271 273.826568) scale(0.11 -0.11)">
       <defs>
        <path id="DejaVuSans-35" d="M 691 4666 
L 3169 4666 
L 3169 4134 
L 1269 4134 
L 1269 2991 
Q 1406 3038 1543 3061 
Q 1681 3084 1819 3084 
Q 2600 3084 3056 2656 
Q 3513 2228 3513 1497 
Q 3513 744 3044 326 
Q 2575 -91 1722 -91 
Q 1428 -91 1123 -41 
Q 819 9 494 109 
L 494 744 
Q 775 591 1075 516 
Q 1375 441 1709 441 
Q 2250 441 2565 725 
Q 2881 1009 2881 1497 
Q 2881 1984 2565 2268 
Q 2250 2553 1709 2553 
Q 1456 2553 1204 2497 
Q 953 2441 691 2322 
L 691 4666 
z
" transform="scale(0.015625)"/>
       </defs>
       <use xlink:href="#DejaVuSans-32"/>
       <use xlink:href="#DejaVuSans-30" transform="translate(63.623047 0)"/>
       <use xlink:href="#DejaVuSans-32" transform="translate(127.246094 0)"/>
       <use xlink:href="#DejaVuSans-35" transform="translate(190.869141 0)"/>
      </g>
     </g>
    </g>
    <g id="xtick_4">
     <g id="line2d_4">
      <g>
       <use xlink:href="#m7ddb43615a" x="294.135937" y="258.468287" style="stroke: #000000; stroke-width: 0.8"/>
      </g>
     </g>
     <g id="text_4">
      <!-- 2026 -->
      <g transform="translate(280.138437 273.826568) scale(0.11 -0.11)">
       <defs>
        <path id="DejaVuSans-36" d="M 2113 2584 
Q 1688 2584 1439 2293 
Q 1191 2003 1191 1497 
Q 1191 994 1439 701 
Q 1688 409 2113 409 
Q 2538 409 2786 701 
Q 3034 994 3034 1497 
Q 3034 2003 2786 2293 
Q 2538 2584 2113 2584 
z
M 3366 4563 
L 3366 3988 
Q 3128 4100 2886 4159 
Q 2644 4219 2406 4219 
Q 1781 4219 1451 3797 
Q 1122 3375 1075 2522 
Q 1259 2794 1537 2939 
Q 1816 3084 2150 3084 
Q 2853 3084 3261 2657 
Q 3669 2231 3669 1497 
Q 3669 778 3244 343 
Q 2819 -91 2113 -91 
Q 1303 -91 875 529 
Q 447 1150 447 2328 
Q 447 3434 972 4092 
Q 1497 4750 2381 4750 
Q 2619 4750 2861 4703 
Q 3103 4656 3366 4563 
z
" transform="scale(0.015625)"/>
       </defs>
       <use xlink:href="#DejaVuSans-32"/>
       <use xlink:href="#DejaVuSans-30" transform="translate(63.623047 0)"/>
       <use xlink:href="#DejaVuSans-32" transform="translate(127.246094 0)"/>
       <use xlink:href="#DejaVuSans-36" transform="translate(190.869141 0)"/>
      </g>
     </g>
    </g>
    <g id="xtick_5">
     <g id="line2d_5">
      <g>
       <use xlink:href="#m7ddb43615a" x="377.900104" y="258.468287" style="stroke: #000000; stroke-width: 0.8"/>
      </g>
     </g>
     <g id="text_5">
      <!-- 2027 -->
      <g transform="translate(363.902604 273.826568) scale(0.11 -0.11)">
       <defs>
        <path id="DejaVuSans-37" d="M 525 4666 
L 3525 4666 
L 3525 4397 
L 1831 0 
L 1172 0 
L 2766 4134 
L 525 4134 
L 525 4666 
z
" transform="scale(0.015625)"/>
       </defs>
       <use xlink:href="#DejaVuSans-32"/>
       <use xlink:href="#DejaVuSans-30" transform="translate(63.623047 0)"/>
       <use xlink:href="#DejaVuSans-32" transform="translate(127.246094 0)"/>
       <use xlink:href="#DejaVuSans-37" transform="translate(190.869141 0)"/>
      </g>
     </g>
    </g>
    <g id="xtick_6">
     <g id="line2d_6">
      <g>
       <use xlink:href="#m7ddb43615a" x="461.664271" y="258.468287" style="stroke: #000000; stroke-width: 0.8"/>
      </g>
     </g>
     <g id="text_6">
      <!-- 2028 -->
      <g transform="translate(447.666771 273.826568) scale(0.11 -0.11)">
       <defs>
        <path id="DejaVuSans-38" d="M 2034 2216 
Q 1584 2216 1326 1975 
Q 1069 1734 1069 1313 
Q 1069 891 1326 650 
Q 1584 409 2034 409 
Q 2484 409 2743 651 
Q 3003 894 3003 1313 
Q 3003 1734 2745 1975 
Q 2488 2216 2034 2216 
z
M 1403 2484 
Q 997 2584 770 2862 
Q 544 3141 544 3541 
Q 544 4100 942 4425 
Q 1341 4750 2034 4750 
Q 2731 4750 3128 4425 
Q 3525 4100 3525 3541 
Q 3525 3141 3298 2862 
Q 3072 2584 2669 2484 
Q 3125 2378 3379 2068 
Q 3634 1759 3634 1313 
Q 3634 634 3220 271 
Q 2806 -91 2034 -91 
Q 1263 -91 848 271 
Q 434 634 434 1313 
Q 434 1759 690 2068 
Q 947 2378 1403 2484 
z
M 1172 3481 
Q 1172 3119 1398 2916 
Q 1625 2713 2034 2713 
Q 2441 2713 2670 2916 
Q 2900 3119 2900 3481 
Q 2900 3844 2670 4047 
Q 2441 4250 2034 4250 
Q 1625 4250 1398 4047 
Q 1172 3844 1172 3481 
z
" transform="scale(0.015625)"/>
       </defs>
       <use xlink:href="#DejaVuSans-32"/>
       <use xlink:href="#DejaVuSans-30" transform="translate(63.623047 0)"/>
       <use xlink:href="#DejaVuSans-32" transform="translate(127.246094 0)"/>
       <use xlink:href="#DejaVuSans-38" transform="translate(190.869141 0)"/>
      </g>
     </g>
    </g>
    <g id="xtick_7">
     <g id="line2d_7">
      <g>
       <use xlink:href="#m7ddb43615a" x="545.428437" y="258.468287" style="stroke: #000000; stroke-width: 0.8"/>
      </g>
     </g>
     <g id="text_7">
      <!-- 2029 -->
      <g transform="translate(531.430937 273.826568) scale(0.11 -0.11)">
       <defs>
        <path id="DejaVuSans-39" d="M 703 97 
L 703 672 
Q 941 559 1184 500 
Q 1428 441 1663 441 
Q 2288 441 2617 861 
Q 2947 1281 2994 2138 
Q 2813 1869 2534 1725 
Q 2256 1581 1919 1581 
Q 1219 1581 811 2004 
Q 403 2428 403 3163 
Q 403 3881 828 4315 
Q 1253 4750 1959 4750 
Q 2769 4750 3195 4129 
Q 3622 3509 3622 2328 
Q 3622 1225 3098 567 
Q 2575 -91 1691 -91 
Q 1453 -91 1209 -44 
Q 966 3 703 97 
z
M 1959 2075 
Q 2384 2075 2632 2365 
Q 2881 2656 2881 3163 
Q 2881 3666 2632 3958 
Q 2384 4250 1959 4250 
Q 1534 4250 1286 3958 
Q 1038 3666 1038 3163 
Q 1038 2656 1286 2365 
Q 1534 2075 1959 2075 
z
" transform="scale(0.015625)"/>
       </defs>
       <use xlink:href="#DejaVuSans-32"/>
       <use xlink:href="#DejaVuSans-30" transform="translate(63.623047 0)"/>
       <use xlink:href="#DejaVuSans-32" transform="translate(127.246094 0)"/>
       <use xlink:href="#DejaVuSans-39" transform="translate(190.869141 0)"/>
      </g>
     </g>
    </g>
   </g>
   <g id="matplotlib.axis_2">
    <g id="ytick_1">
     <g id="line2d_8">
      <path d="M 42.843438 258.468287 
L 545.428437 258.468287 
" clip-path="url(#p788e68f058)" style="fill: none; stroke: #e2e8f0; stroke-width: 0.6; stroke-linecap: square"/>
     </g>
     <g id="line2d_9">
      <defs>
       <path id="m1c9a9da10f" d="M 0 0 
L -3.5 0 
" style="stroke: #000000; stroke-width: 0.8"/>
      </defs>
      <g>
       <use xlink:href="#m1c9a9da10f" x="42.843438" y="258.468287" style="stroke: #000000; stroke-width: 0.8"/>
      </g>
     </g>
     <g id="text_8">
      <!-- 0 -->
      <g transform="translate(28.844688 262.647427) scale(0.11 -0.11)">
       <use xlink:href="#DejaVuSans-30"/>
      </g>
     </g>
    </g>
    <g id="ytick_2">
     <g id="line2d_10">
      <path d="M 42.843438 224.678546 
L 545.428437 224.678546 
" clip-path="url(#p788e68f058)" style="fill: none; stroke: #e2e8f0; stroke-width: 0.6; stroke-linecap: square"/>
     </g>
     <g id="line2d_11">
      <g>
       <use xlink:href="#m1c9a9da10f" x="42.843438" y="224.678546" style="stroke: #000000; stroke-width: 0.8"/>
      </g>
     </g>
     <g id="text_9">
      <!-- 10 -->
      <g transform="translate(21.845938 228.857686) scale(0.11 -0.11)">
       <defs>
        <path id="DejaVuSans-31" d="M 794 531 
L 1825 531 
L 1825 4091 
L 703 3866 
L 703 4441 
L 1819 4666 
L 2450 4666 
L 2450 531 
L 3481 531 
L 3481 0 
L 794 0 
L 794 531 
z
" transform="scale(0.015625)"/>
       </defs>
       <use xlink:href="#DejaVuSans-31"/>
       <use xlink:href="#DejaVuSans-30" transform="translate(63.623047 0)"/>
      </g>
     </g>
    </g>
    <g id="ytick_3">
     <g id="line2d_12">
      <path d="M 42.843438 190.888805 
L 545.428437 190.888805 
" clip-path="url(#p788e68f058)" style="fill: none; stroke: #e2e8f0; stroke-width: 0.6; stroke-linecap: square"/>
     </g>
     <g id="line2d_13">
      <g>
       <use xlink:href="#m1c9a9da10f" x="42.843438" y="190.888805" style="stroke: #000000; stroke-width: 0.8"/>
      </g>
     </g>
     <g id="text_10">
      <!-- 20 -->
      <g transform="translate(21.845938 195.067945) scale(0.11 -0.11)">
       <use xlink:href="#DejaVuSans-32"/>
       <use xlink:href="#DejaVuSans-30" transform="translate(63.623047 0)"/>
      </g>
     </g>
    </g>
    <g id="ytick_4">
     <g id="line2d_14">
      <path d="M 42.843438 157.099063 
L 545.428437 157.099063 
" clip-path="url(#p788e68f058)" style="fill: none; stroke: #e2e8f0; stroke-width: 0.6; stroke-linecap: square"/>
     </g>
     <g id="line2d_15">
      <g>
       <use xlink:href="#m1c9a9da10f" x="42.843438" y="157.099063" style="stroke: #000000; stroke-width: 0.8"/>
      </g>
     </g>
     <g id="text_11">
      <!-- 30 -->
      <g transform="translate(21.845938 161.278204) scale(0.11 -0.11)">
       <use xlink:href="#DejaVuSans-33"/>
       <use xlink:href="#DejaVuSans-30" transform="translate(63.623047 0)"/>
      </g>
     </g>
    </g>
    <g id="ytick_5">
     <g id="line2d_16">
      <path d="M 42.843438 123.309322 
L 545.428437 123.309322 
" clip-path="url(#p788e68f058)" style="fill: none; stroke: #e2e8f0; stroke-width: 0.6; stroke-linecap: square"/>
     </g>
     <g id="line2d_17">
      <g>
       <use xlink:href="#m1c9a9da10f" x="42.843438" y="123.309322" style="stroke: #000000; stroke-width: 0.8"/>
      </g>
     </g>
     <g id="text_12">
      <!-- 40 -->
      <g transform="translate(21.845938 127.488463) scale(0.11 -0.11)">
       <use xlink:href="#DejaVuSans-34"/>
       <use xlink:href="#DejaVuSans-30" transform="translate(63.623047 0)"/>
      </g>
     </g>
    </g>
    <g id="ytick_6">
     <g id="line2d_18">
      <path d="M 42.843438 89.519581 
L 545.428437 89.519581 
" clip-path="url(#p788e68f058)" style="fill: none; stroke: #e2e8f0; stroke-width: 0.6; stroke-linecap: square"/>
     </g>
     <g id="line2d_19">
      <g>
       <use xlink:href="#m1c9a9da10f" x="42.843438" y="89.519581" style="stroke: #000000; stroke-width: 0.8"/>
      </g>
     </g>
     <g id="text_13">
      <!-- 50 -->
      <g transform="translate(21.845938 93.698722) scale(0.11 -0.11)">
       <use xlink:href="#DejaVuSans-35"/>
       <use xlink:href="#DejaVuSans-30" transform="translate(63.623047 0)"/>
      </g>
     </g>
    </g>
    <g id="ytick_7">
     <g id="line2d_20">
      <path d="M 42.843438 55.72984 
L 545.428437 55.72984 
" clip-path="url(#p788e68f058)" style="fill: none; stroke: #e2e8f0; stroke-width: 0.6; stroke-linecap: square"/>
     </g>
     <g id="line2d_21">
      <g>
       <use xlink:href="#m1c9a9da10f" x="42.843438" y="55.72984" style="stroke: #000000; stroke-width: 0.8"/>
      </g>
     </g>
     <g id="text_14">
      <!-- 60 -->
      <g transform="translate(21.845938 59.90898) scale(0.11 -0.11)">
       <use xlink:href="#DejaVuSans-36"/>
       <use xlink:href="#DejaVuSans-30" transform="translate(63.623047 0)"/>
      </g>
     </g>
    </g>
    <g id="text_15">
     <!-- Growth index (2023 = 1) -->
     <g style="fill: #0f172a" transform="translate(15.558281 211.924964) rotate(-90) scale(0.11 -0.11)">
      <defs>
       <path id="DejaVuSans-47" d="M 3809 666 
L 3809 1919 
L 2778 1919 
L 2778 2438 
L 4434 2438 
L 4434 434 
Q 4069 175 3628 42 
Q 3188 -91 2688 -91 
Q 1594 -91 976 548 
Q 359 1188 359 2328 
Q 359 3472 976 4111 
Q 1594 4750 2688 4750 
Q 3144 4750 3555 4637 
Q 3966 4525 4313 4306 
L 4313 3634 
Q 3963 3931 3569 4081 
Q 3175 4231 2741 4231 
Q 1884 4231 1454 3753 
Q 1025 3275 1025 2328 
Q 1025 1384 1454 906 
Q 1884 428 2741 428 
Q 3075 428 3337 486 
Q 3600 544 3809 666 
z
" transform="scale(0.015625)"/>
       <path id="DejaVuSans-72" d="M 2631 2963 
Q 2534 3019 2420 3045 
Q 2306 3072 2169 3072 
Q 1681 3072 1420 2755 
Q 1159 2438 1159 1844 
L 1159 0 
L 581 0 
L 581 3500 
L 1159 3500 
L 1159 2956 
Q 1341 3275 1631 3429 
Q 1922 3584 2338 3584 
Q 2397 3584 2469 3576 
Q 2541 3569 2628 3553 
L 2631 2963 
z
" transform="scale(0.015625)"/>
       <path id="DejaVuSans-6f" d="M 1959 3097 
Q 1497 3097 1228 2736 
Q 959 2375 959 1747 
Q 959 1119 1226 758 
Q 1494 397 1959 397 
Q 2419 397 2687 759 
Q 2956 1122 2956 1747 
Q 2956 2369 2687 2733 
Q 2419 3097 1959 3097 
z
M 1959 3584 
Q 2709 3584 3137 3096 
Q 3566 2609 3566 1747 
Q 3566 888 3137 398 
Q 2709 -91 1959 -91 
Q 1206 -91 779 398 
Q 353 888 353 1747 
Q 353 2609 779 3096 
Q 1206 3584 1959 3584 
z
" transform="scale(0.015625)"/>
       <path id="DejaVuSans-77" d="M 269 3500 
L 844 3500 
L 1563 769 
L 2278 3500 
L 2956 3500 
L 3675 769 
L 4391 3500 
L 4966 3500 
L 4050 0 
L 3372 0 
L 2619 2869 
L 1863 0 
L 1184 0 
L 269 3500 
z
" transform="scale(0.015625)"/>
       <path id="DejaVuSans-74" d="M 1172 4494 
L 1172 3500 
L 2356 3500 
L 2356 3053 
L 1172 3053 
L 1172 1153 
Q 1172 725 1289 603 
Q 1406 481 1766 481 
L 2356 481 
L 2356 0 
L 1766 0 
Q 1100 0 847 248 
Q 594 497 594 1153 
L 594 3053 
L 172 3053 
L 172 3500 
L 594 3500 
L 594 4494 
L 1172 4494 
z
" transform="scale(0.015625)"/>
       <path id="DejaVuSans-68" d="M 3513 2113 
L 3513 0 
L 2938 0 
L 2938 2094 
Q 2938 2591 2744 2837 
Q 2550 3084 2163 3084 
Q 1697 3084 1428 2787 
Q 1159 2491 1159 1978 
L 1159 0 
L 581 0 
L 581 4863 
L 1159 4863 
L 1159 2956 
Q 1366 3272 1645 3428 
Q 1925 3584 2291 3584 
Q 2894 3584 3203 3211 
Q 3513 2838 3513 2113 
z
" transform="scale(0.015625)"/>
       <path id="DejaVuSans-20" transform="scale(0.015625)"/>
       <path id="DejaVuSans-69" d="M 603 3500 
L 1178 3500 
L 1178 0 
L 603 0 
L 603 3500 
z
M 603 4863 
L 1178 4863 
L 1178 4134 
L 603 4134 
L 603 4863 
z
" transform="scale(0.015625)"/>
       <path id="DejaVuSans-6e" d="M 3513 2113 
L 3513 0 
L 2938 0 
L 2938 2094 
Q 2938 2591 2744 2837 
Q 2550 3084 2163 3084 
Q 1697 3084 1428 2787 
Q 1159 2491 1159 1978 
L 1159 0 
L 581 0 
L 581 3500 
L 1159 3500 
L 1159 2956 
Q 1366 3272 1645 3428 
Q 1925 3584 2291 3584 
Q 2894 3584 3203 3211 
Q 3513 2838 3513 2113 
z
" transform="scale(0.015625)"/>
       <path id="DejaVuSans-64" d="M 2906 2969 
L 2906 4863 
L 3481 4863 
L 3481 0 
L 2906 0 
L 2906 525 
Q 2725 213 2448 61 
Q 2172 -91 1784 -91 
Q 1150 -91 751 415 
Q 353 922 353 1747 
Q 353 2572 751 3078 
Q 1150 3584 1784 3584 
Q 2172 3584 2448 3432 
Q 2725 3281 2906 2969 
z
M 947 1747 
Q 947 1113 1208 752 
Q 1469 391 1925 391 
Q 2381 391 2643 752 
Q 2906 1113 2906 1747 
Q 2906 2381 2643 2742 
Q 2381 3103 1925 3103 
Q 1469 3103 1208 2742 
Q 947 2381 947 1747 
z
" transform="scale(0.015625)"/>
       <path id="DejaVuSans-65" d="M 3597 1894 
L 3597 1613 
L 953 1613 
Q 991 1019 1311 708 
Q 1631 397 2203 397 
Q 2534 397 2845 478 
Q 3156 559 3463 722 
L 3463 178 
Q 3153 47 2828 -22 
Q 2503 -91 2169 -91 
Q 1331 -91 842 396 
Q 353 884 353 1716 
Q 353 2575 817 3079 
Q 1281 3584 2069 3584 
Q 2775 3584 3186 3129 
Q 3597 2675 3597 1894 
z
M 3022 2063 
Q 3016 2534 2758 2815 
Q 2500 3097 2075 3097 
Q 1594 3097 1305 2825 
Q 1016 2553 972 2059 
L 3022 2063 
z
" transform="scale(0.015625)"/>
       <path id="DejaVuSans-78" d="M 3513 3500 
L 2247 1797 
L 3578 0 
L 2900 0 
L 1881 1375 
L 863 0 
L 184 0 
L 1544 1831 
L 300 3500 
L 978 3500 
L 1906 2253 
L 2834 3500 
L 3513 3500 
z
" transform="scale(0.015625)"/>
       <path id="DejaVuSans-28" d="M 1984 4856 
Q 1566 4138 1362 3434 
Q 1159 2731 1159 2009 
Q 1159 1288 1364 580 
Q 1569 -128 1984 -844 
L 1484 -844 
Q 1016 -109 783 600 
Q 550 1309 550 2009 
Q 550 2706 781 3412 
Q 1013 4119 1484 4856 
L 1984 4856 
z
" transform="scale(0.015625)"/>
       <path id="DejaVuSans-3d" d="M 678 2906 
L 4684 2906 
L 4684 2381 
L 678 2381 
L 678 2906 
z
M 678 1631 
L 4684 1631 
L 4684 1100 
L 678 1100 
L 678 1631 
z
" transform="scale(0.015625)"/>
       <path id="DejaVuSans-29" d="M 513 4856 
L 1013 4856 
Q 1481 4119 1714 3412 
Q 1947 2706 1947 2009 
Q 1947 1309 1714 600 
Q 1481 -109 1013 -844 
L 513 -844 
Q 928 -128 1133 580 
Q 1338 1288 1338 2009 
Q 1338 2731 1133 3434 
Q 928 4138 513 4856 
z
" transform="scale(0.015625)"/>
      </defs>
      <use xlink:href="#DejaVuSans-47"/>
      <use xlink:href="#DejaVuSans-72" transform="translate(77.490234 0)"/>
      <use xlink:href="#DejaVuSans-6f" transform="translate(116.353516 0)"/>
      <use xlink:href="#DejaVuSans-77" transform="translate(177.535156 0)"/>
      <use xlink:href="#DejaVuSans-74" transform="translate(259.322266 0)"/>
      <use xlink:href="#DejaVuSans-68" transform="translate(298.53125 0)"/>
      <use xlink:href="#DejaVuSans-20" transform="translate(361.910156 0)"/>
      <use xlink:href="#DejaVuSans-69" transform="translate(393.697266 0)"/>
      <use xlink:href="#DejaVuSans-6e" transform="translate(421.480469 0)"/>
      <use xlink:href="#DejaVuSans-64" transform="translate(484.859375 0)"/>
      <use xlink:href="#DejaVuSans-65" transform="translate(548.335938 0)"/>
      <use xlink:href="#DejaVuSans-78" transform="translate(608.109375 0)"/>
      <use xlink:href="#DejaVuSans-20" transform="translate(667.289062 0)"/>
      <use xlink:href="#DejaVuSans-28" transform="translate(699.076172 0)"/>
      <use xlink:href="#DejaVuSans-32" transform="translate(738.089844 0)"/>
      <use xlink:href="#DejaVuSans-30" transform="translate(801.712891 0)"/>
      <use xlink:href="#DejaVuSans-32" transform="translate(865.335938 0)"/>
      <use xlink:href="#DejaVuSans-33" transform="translate(928.958984 0)"/>
      <use xlink:href="#DejaVuSans-20" transform="translate(992.582031 0)"/>
      <use xlink:href="#DejaVuSans-3d" transform="translate(1024.369141 0)"/>
      <use xlink:href="#DejaVuSans-20" transform="translate(1108.158203 0)"/>
      <use xlink:href="#DejaVuSans-31" transform="translate(1139.945312 0)"/>
      <use xlink:href="#DejaVuSans-29" transform="translate(1203.568359 0)"/>
     </g>
    </g>
   </g>
   <g id="patch_3">
    <path d="M 42.843438 258.468287 
L 42.843438 28.698047 
" style="fill: none; stroke: #cbd5e1; stroke-width: 0.8; stroke-linejoin: miter; stroke-linecap: square"/>
   </g>
   <g id="patch_4">
    <path d="M 42.843438 258.468287 
L 545.428437 258.468287 
" style="fill: none; stroke: #cbd5e1; stroke-width: 0.8; stroke-linejoin: miter; stroke-linecap: square"/>
   </g>
   <g id="line2d_22">
    <path d="M 42.843438 255.089313 
L 84.725521 253.737723 
L 126.607604 251.710339 
L 168.489687 249.007159 
L 210.371771 244.95239 
L 252.253854 239.546032 
L 294.135937 231.436494 
L 336.018021 221.299572 
L 377.900104 204.404701 
L 419.782188 184.130856 
L 461.664271 150.341115 
L 503.546354 106.414452 
L 545.428437 42.213943 
" clip-path="url(#p788e68f058)" style="fill: none; stroke: #dc2626; stroke-width: 2.6; stroke-linecap: square"/>
   </g>
   <g id="line2d_23">
    <path d="M 42.843438 255.089313 
L 84.725521 254.244569 
L 126.607604 253.230877 
L 168.489687 252.048236 
L 210.371771 250.358749 
L 252.253854 248.331365 
L 294.135937 245.966083 
L 336.018021 242.925006 
L 377.900104 239.208134 
L 419.782188 234.815468 
L 461.664271 229.071212 
L 503.546354 221.975366 
L 545.428437 213.190034 
" clip-path="url(#p788e68f058)" style="fill: none; stroke: #64748b; stroke-width: 2.6; stroke-linecap: square"/>
   </g>
   <g id="text_16">
    <!-- demand moves at -->
    <g style="fill: #dc2626" transform="translate(336.018021 79.44155) scale(0.09 -0.09)">
     <defs>
      <path id="DejaVuSans-6d" d="M 3328 2828 
Q 3544 3216 3844 3400 
Q 4144 3584 4550 3584 
Q 5097 3584 5394 3201 
Q 5691 2819 5691 2113 
L 5691 0 
L 5113 0 
L 5113 2094 
Q 5113 2597 4934 2840 
Q 4756 3084 4391 3084 
Q 3944 3084 3684 2787 
Q 3425 2491 3425 1978 
L 3425 0 
L 2847 0 
L 2847 2094 
Q 2847 2600 2669 2842 
Q 2491 3084 2119 3084 
Q 1678 3084 1418 2786 
Q 1159 2488 1159 1978 
L 1159 0 
L 581 0 
L 581 3500 
L 1159 3500 
L 1159 2956 
Q 1356 3278 1631 3431 
Q 1906 3584 2284 3584 
Q 2666 3584 2933 3390 
Q 3200 3197 3328 2828 
z
" transform="scale(0.015625)"/>
      <path id="DejaVuSans-61" d="M 2194 1759 
Q 1497 1759 1228 1600 
Q 959 1441 959 1056 
Q 959 750 1161 570 
Q 1363 391 1709 391 
Q 2188 391 2477 730 
Q 2766 1069 2766 1631 
L 2766 1759 
L 2194 1759 
z
M 3341 1997 
L 3341 0 
L 2766 0 
L 2766 531 
Q 2569 213 2275 61 
Q 1981 -91 1556 -91 
Q 1019 -91 701 211 
Q 384 513 384 1019 
Q 384 1609 779 1909 
Q 1175 2209 1959 2209 
L 2766 2209 
L 2766 2266 
Q 2766 2663 2505 2880 
Q 2244 3097 1772 3097 
Q 1472 3097 1187 3025 
Q 903 2953 641 2809 
L 641 3341 
Q 956 3463 1253 3523 
Q 1550 3584 1831 3584 
Q 2591 3584 2966 3190 
Q 3341 2797 3341 1997 
z
" transform="scale(0.015625)"/>
      <path id="DejaVuSans-76" d="M 191 3500 
L 800 3500 
L 1894 563 
L 2988 3500 
L 3597 3500 
L 2284 0 
L 1503 0 
L 191 3500 
z
" transform="scale(0.015625)"/>
      <path id="DejaVuSans-73" d="M 2834 3397 
L 2834 2853 
Q 2591 2978 2328 3040 
Q 2066 3103 1784 3103 
Q 1356 3103 1142 2972 
Q 928 2841 928 2578 
Q 928 2378 1081 2264 
Q 1234 2150 1697 2047 
L 1894 2003 
Q 2506 1872 2764 1633 
Q 3022 1394 3022 966 
Q 3022 478 2636 193 
Q 2250 -91 1575 -91 
Q 1294 -91 989 -36 
Q 684 19 347 128 
L 347 722 
Q 666 556 975 473 
Q 1284 391 1588 391 
Q 1994 391 2212 530 
Q 2431 669 2431 922 
Q 2431 1156 2273 1281 
Q 2116 1406 1581 1522 
L 1381 1569 
Q 847 1681 609 1914 
Q 372 2147 372 2553 
Q 372 3047 722 3315 
Q 1072 3584 1716 3584 
Q 2034 3584 2315 3537 
Q 2597 3491 2834 3397 
z
" transform="scale(0.015625)"/>
     </defs>
     <use xlink:href="#DejaVuSans-64"/>
     <use xlink:href="#DejaVuSans-65" transform="translate(63.476562 0)"/>
     <use xlink:href="#DejaVuSans-6d" transform="translate(125 0)"/>
     <use xlink:href="#DejaVuSans-61" transform="translate(222.412109 0)"/>
     <use xlink:href="#DejaVuSans-6e" transform="translate(283.691406 0)"/>
     <use xlink:href="#DejaVuSans-64" transform="translate(347.070312 0)"/>
     <use xlink:href="#DejaVuSans-20" transform="translate(410.546875 0)"/>
     <use xlink:href="#DejaVuSans-6d" transform="translate(442.333984 0)"/>
     <use xlink:href="#DejaVuSans-6f" transform="translate(539.746094 0)"/>
     <use xlink:href="#DejaVuSans-76" transform="translate(600.927734 0)"/>
     <use xlink:href="#DejaVuSans-65" transform="translate(660.107422 0)"/>
     <use xlink:href="#DejaVuSans-73" transform="translate(721.630859 0)"/>
     <use xlink:href="#DejaVuSans-20" transform="translate(773.730469 0)"/>
     <use xlink:href="#DejaVuSans-61" transform="translate(805.517578 0)"/>
     <use xlink:href="#DejaVuSans-74" transform="translate(866.796875 0)"/>
    </g>
    <!-- the speed of software -->
    <g style="fill: #dc2626" transform="translate(336.018021 89.519581) scale(0.09 -0.09)">
     <defs>
      <path id="DejaVuSans-70" d="M 1159 525 
L 1159 -1331 
L 581 -1331 
L 581 3500 
L 1159 3500 
L 1159 2969 
Q 1341 3281 1617 3432 
Q 1894 3584 2278 3584 
Q 2916 3584 3314 3078 
Q 3713 2572 3713 1747 
Q 3713 922 3314 415 
Q 2916 -91 2278 -91 
Q 1894 -91 1617 61 
Q 1341 213 1159 525 
z
M 3116 1747 
Q 3116 2381 2855 2742 
Q 2594 3103 2138 3103 
Q 1681 3103 1420 2742 
Q 1159 2381 1159 1747 
Q 1159 1113 1420 752 
Q 1681 391 2138 391 
Q 2594 391 2855 752 
Q 3116 1113 3116 1747 
z
" transform="scale(0.015625)"/>
      <path id="DejaVuSans-66" d="M 2375 4863 
L 2375 4384 
L 1825 4384 
Q 1516 4384 1395 4259 
Q 1275 4134 1275 3809 
L 1275 3500 
L 2222 3500 
L 2222 3053 
L 1275 3053 
L 1275 0 
L 697 0 
L 697 3053 
L 147 3053 
L 147 3500 
L 697 3500 
L 697 3744 
Q 697 4328 969 4595 
Q 1241 4863 1831 4863 
L 2375 4863 
z
" transform="scale(0.015625)"/>
     </defs>
     <use xlink:href="#DejaVuSans-74"/>
     <use xlink:href="#DejaVuSans-68" transform="translate(39.208984 0)"/>
     <use xlink:href="#DejaVuSans-65" transform="translate(102.587891 0)"/>
     <use xlink:href="#DejaVuSans-20" transform="translate(164.111328 0)"/>
     <use xlink:href="#DejaVuSans-73" transform="translate(195.898438 0)"/>
     <use xlink:href="#DejaVuSans-70" transform="translate(247.998047 0)"/>
     <use xlink:href="#DejaVuSans-65" transform="translate(311.474609 0)"/>
     <use xlink:href="#DejaVuSans-65" transform="translate(372.998047 0)"/>
     <use xlink:href="#DejaVuSans-64" transform="translate(434.521484 0)"/>
     <use xlink:href="#DejaVuSans-20" transform="translate(497.998047 0)"/>
     <use xlink:href="#DejaVuSans-6f" transform="translate(529.785156 0)"/>
     <use xlink:href="#DejaVuSans-66" transform="translate(590.966797 0)"/>
     <use xlink:href="#DejaVuSans-20" transform="translate(626.171875 0)"/>
     <use xlink:href="#DejaVuSans-73" transform="translate(657.958984 0)"/>
     <use xlink:href="#DejaVuSans-6f" transform="translate(710.058594 0)"/>
     <use xlink:href="#DejaVuSans-66" transform="translate(771.240234 0)"/>
     <use xlink:href="#DejaVuSans-74" transform="translate(804.695312 0)"/>
     <use xlink:href="#DejaVuSans-77" transform="translate(843.904297 0)"/>
     <use xlink:href="#DejaVuSans-61" transform="translate(925.691406 0)"/>
     <use xlink:href="#DejaVuSans-72" transform="translate(986.970703 0)"/>
     <use xlink:href="#DejaVuSans-65" transform="translate(1025.833984 0)"/>
    </g>
   </g>
   <g id="text_17">
    <!-- supply moves at the -->
    <g style="fill: #64748b" transform="translate(319.265187 180.810773) scale(0.09 -0.09)">
     <defs>
      <path id="DejaVuSans-75" d="M 544 1381 
L 544 3500 
L 1119 3500 
L 1119 1403 
Q 1119 906 1312 657 
Q 1506 409 1894 409 
Q 2359 409 2629 706 
Q 2900 1003 2900 1516 
L 2900 3500 
L 3475 3500 
L 3475 0 
L 2900 0 
L 2900 538 
Q 2691 219 2414 64 
Q 2138 -91 1772 -91 
Q 1169 -91 856 284 
Q 544 659 544 1381 
z
M 1991 3584 
L 1991 3584 
z
" transform="scale(0.015625)"/>
      <path id="DejaVuSans-6c" d="M 603 4863 
L 1178 4863 
L 1178 0 
L 603 0 
L 603 4863 
z
" transform="scale(0.015625)"/>
      <path id="DejaVuSans-79" d="M 2059 -325 
Q 1816 -950 1584 -1140 
Q 1353 -1331 966 -1331 
L 506 -1331 
L 506 -850 
L 844 -850 
Q 1081 -850 1212 -737 
Q 1344 -625 1503 -206 
L 1606 56 
L 191 3500 
L 800 3500 
L 1894 763 
L 2988 3500 
L 3597 3500 
L 2059 -325 
z
" transform="scale(0.015625)"/>
     </defs>
     <use xlink:href="#DejaVuSans-73"/>
     <use xlink:href="#DejaVuSans-75" transform="translate(52.099609 0)"/>
     <use xlink:href="#DejaVuSans-70" transform="translate(115.478516 0)"/>
     <use xlink:href="#DejaVuSans-70" transform="translate(178.955078 0)"/>
     <use xlink:href="#DejaVuSans-6c" transform="translate(242.431641 0)"/>
     <use xlink:href="#DejaVuSans-79" transform="translate(270.214844 0)"/>
     <use xlink:href="#DejaVuSans-20" transform="translate(329.394531 0)"/>
     <use xlink:href="#DejaVuSans-6d" transform="translate(361.181641 0)"/>
     <use xlink:href="#DejaVuSans-6f" transform="translate(458.59375 0)"/>
     <use xlink:href="#DejaVuSans-76" transform="translate(519.775391 0)"/>
     <use xlink:href="#DejaVuSans-65" transform="translate(578.955078 0)"/>
     <use xlink:href="#DejaVuSans-73" transform="translate(640.478516 0)"/>
     <use xlink:href="#DejaVuSans-20" transform="translate(692.578125 0)"/>
     <use xlink:href="#DejaVuSans-61" transform="translate(724.365234 0)"/>
     <use xlink:href="#DejaVuSans-74" transform="translate(785.644531 0)"/>
     <use xlink:href="#DejaVuSans-20" transform="translate(824.853516 0)"/>
     <use xlink:href="#DejaVuSans-74" transform="translate(856.640625 0)"/>
     <use xlink:href="#DejaVuSans-68" transform="translate(895.849609 0)"/>
     <use xlink:href="#DejaVuSans-65" transform="translate(959.228516 0)"/>
    </g>
    <!-- speed of construction -->
    <g style="fill: #64748b" transform="translate(319.265187 190.888805) scale(0.09 -0.09)">
     <defs>
      <path id="DejaVuSans-63" d="M 3122 3366 
L 3122 2828 
Q 2878 2963 2633 3030 
Q 2388 3097 2138 3097 
Q 1578 3097 1268 2742 
Q 959 2388 959 1747 
Q 959 1106 1268 751 
Q 1578 397 2138 397 
Q 2388 397 2633 464 
Q 2878 531 3122 666 
L 3122 134 
Q 2881 22 2623 -34 
Q 2366 -91 2075 -91 
Q 1284 -91 818 406 
Q 353 903 353 1747 
Q 353 2603 823 3093 
Q 1294 3584 2113 3584 
Q 2378 3584 2631 3529 
Q 2884 3475 3122 3366 
z
" transform="scale(0.015625)"/>
     </defs>
     <use xlink:href="#DejaVuSans-73"/>
     <use xlink:href="#DejaVuSans-70" transform="translate(52.099609 0)"/>
     <use xlink:href="#DejaVuSans-65" transform="translate(115.576172 0)"/>
     <use xlink:href="#DejaVuSans-65" transform="translate(177.099609 0)"/>
     <use xlink:href="#DejaVuSans-64" transform="translate(238.623047 0)"/>
     <use xlink:href="#DejaVuSans-20" transform="translate(302.099609 0)"/>
     <use xlink:href="#DejaVuSans-6f" transform="translate(333.886719 0)"/>
     <use xlink:href="#DejaVuSans-66" transform="translate(395.068359 0)"/>
     <use xlink:href="#DejaVuSans-20" transform="translate(430.273438 0)"/>
     <use xlink:href="#DejaVuSans-63" transform="translate(462.060547 0)"/>
     <use xlink:href="#DejaVuSans-6f" transform="translate(517.041016 0)"/>
     <use xlink:href="#DejaVuSans-6e" transform="translate(578.222656 0)"/>
     <use xlink:href="#DejaVuSans-73" transform="translate(641.601562 0)"/>
     <use xlink:href="#DejaVuSans-74" transform="translate(693.701172 0)"/>
     <use xlink:href="#DejaVuSans-72" transform="translate(732.910156 0)"/>
     <use xlink:href="#DejaVuSans-75" transform="translate(774.023438 0)"/>
     <use xlink:href="#DejaVuSans-63" transform="translate(837.402344 0)"/>
     <use xlink:href="#DejaVuSans-74" transform="translate(892.382812 0)"/>
     <use xlink:href="#DejaVuSans-69" transform="translate(931.591797 0)"/>
     <use xlink:href="#DejaVuSans-6f" transform="translate(959.375 0)"/>
     <use xlink:href="#DejaVuSans-6e" transform="translate(1020.556641 0)"/>
    </g>
   </g>
   <g id="text_18">
    <!-- Illustrative growth paths, indexed to 2023. -->
    <g style="fill: #64748b" transform="translate(42.843438 295.231525) scale(0.085 -0.085)">
     <defs>
      <path id="DejaVuSans-49" d="M 628 4666 
L 1259 4666 
L 1259 0 
L 628 0 
L 628 4666 
z
" transform="scale(0.015625)"/>
      <path id="DejaVuSans-67" d="M 2906 1791 
Q 2906 2416 2648 2759 
Q 2391 3103 1925 3103 
Q 1463 3103 1205 2759 
Q 947 2416 947 1791 
Q 947 1169 1205 825 
Q 1463 481 1925 481 
Q 2391 481 2648 825 
Q 2906 1169 2906 1791 
z
M 3481 434 
Q 3481 -459 3084 -895 
Q 2688 -1331 1869 -1331 
Q 1566 -1331 1297 -1286 
Q 1028 -1241 775 -1147 
L 775 -588 
Q 1028 -725 1275 -790 
Q 1522 -856 1778 -856 
Q 2344 -856 2625 -561 
Q 2906 -266 2906 331 
L 2906 616 
Q 2728 306 2450 153 
Q 2172 0 1784 0 
Q 1141 0 747 490 
Q 353 981 353 1791 
Q 353 2603 747 3093 
Q 1141 3584 1784 3584 
Q 2172 3584 2450 3431 
Q 2728 3278 2906 2969 
L 2906 3500 
L 3481 3500 
L 3481 434 
z
" transform="scale(0.015625)"/>
      <path id="DejaVuSans-2c" d="M 750 794 
L 1409 794 
L 1409 256 
L 897 -744 
L 494 -744 
L 750 256 
L 750 794 
z
" transform="scale(0.015625)"/>
      <path id="DejaVuSans-2e" d="M 684 794 
L 1344 794 
L 1344 0 
L 684 0 
L 684 794 
z
" transform="scale(0.015625)"/>
     </defs>
     <use xlink:href="#DejaVuSans-49"/>
     <use xlink:href="#DejaVuSans-6c" transform="translate(29.492188 0)"/>
     <use xlink:href="#DejaVuSans-6c" transform="translate(57.275391 0)"/>
     <use xlink:href="#DejaVuSans-75" transform="translate(85.058594 0)"/>
     <use xlink:href="#DejaVuSans-73" transform="translate(148.4375 0)"/>
     <use xlink:href="#DejaVuSans-74" transform="translate(200.537109 0)"/>
     <use xlink:href="#DejaVuSans-72" transform="translate(239.746094 0)"/>
     <use xlink:href="#DejaVuSans-61" transform="translate(280.859375 0)"/>
     <use xlink:href="#DejaVuSans-74" transform="translate(342.138672 0)"/>
     <use xlink:href="#DejaVuSans-69" transform="translate(381.347656 0)"/>
     <use xlink:href="#DejaVuSans-76" transform="translate(409.130859 0)"/>
     <use xlink:href="#DejaVuSans-65" transform="translate(468.310547 0)"/>
     <use xlink:href="#DejaVuSans-20" transform="translate(529.833984 0)"/>
     <use xlink:href="#DejaVuSans-67" transform="translate(561.621094 0)"/>
     <use xlink:href="#DejaVuSans-72" transform="translate(625.097656 0)"/>
     <use xlink:href="#DejaVuSans-6f" transform="translate(663.960938 0)"/>
     <use xlink:href="#DejaVuSans-77" transform="translate(725.142578 0)"/>
     <use xlink:href="#DejaVuSans-74" transform="translate(806.929688 0)"/>
     <use xlink:href="#DejaVuSans-68" transform="translate(846.138672 0)"/>
     <use xlink:href="#DejaVuSans-20" transform="translate(909.517578 0)"/>
     <use xlink:href="#DejaVuSans-70" transform="translate(941.304688 0)"/>
     <use xlink:href="#DejaVuSans-61" transform="translate(1004.78125 0)"/>
     <use xlink:href="#DejaVuSans-74" transform="translate(1066.060547 0)"/>
     <use xlink:href="#DejaVuSans-68" transform="translate(1105.269531 0)"/>
     <use xlink:href="#DejaVuSans-73" transform="translate(1168.648438 0)"/>
     <use xlink:href="#DejaVuSans-2c" transform="translate(1220.748047 0)"/>
     <use xlink:href="#DejaVuSans-20" transform="translate(1252.535156 0)"/>
     <use xlink:href="#DejaVuSans-69" transform="translate(1284.322266 0)"/>
     <use xlink:href="#DejaVuSans-6e" transform="translate(1312.105469 0)"/>
     <use xlink:href="#DejaVuSans-64" transform="translate(1375.484375 0)"/>
     <use xlink:href="#DejaVuSans-65" transform="translate(1438.960938 0)"/>
     <use xlink:href="#DejaVuSans-78" transform="translate(1498.734375 0)"/>
     <use xlink:href="#DejaVuSans-65" transform="translate(1554.789062 0)"/>
     <use xlink:href="#DejaVuSans-64" transform="translate(1616.3125 0)"/>
     <use xlink:href="#DejaVuSans-20" transform="translate(1679.789062 0)"/>
     <use xlink:href="#DejaVuSans-74" transform="translate(1711.576172 0)"/>
     <use xlink:href="#DejaVuSans-6f" transform="translate(1750.785156 0)"/>
     <use xlink:href="#DejaVuSans-20" transform="translate(1811.966797 0)"/>
     <use xlink:href="#DejaVuSans-32" transform="translate(1843.753906 0)"/>
     <use xlink:href="#DejaVuSans-30" transform="translate(1907.376953 0)"/>
     <use xlink:href="#DejaVuSans-32" transform="translate(1971 0)"/>
     <use xlink:href="#DejaVuSans-33" transform="translate(2034.623047 0)"/>
     <use xlink:href="#DejaVuSans-2e" transform="translate(2098.246094 0)"/>
    </g>
   </g>
   <g id="text_19">
    <!-- Why prices swing: demand outruns what can be built -->
    <g style="fill: #0f172a" transform="translate(42.843438 16.698047) scale(0.125 -0.125)">
     <defs>
      <path id="DejaVuSans-57" d="M 213 4666 
L 850 4666 
L 1831 722 
L 2809 4666 
L 3519 4666 
L 4500 722 
L 5478 4666 
L 6119 4666 
L 4947 0 
L 4153 0 
L 3169 4050 
L 2175 0 
L 1381 0 
L 213 4666 
z
" transform="scale(0.015625)"/>
      <path id="DejaVuSans-3a" d="M 750 794 
L 1409 794 
L 1409 0 
L 750 0 
L 750 794 
z
M 750 3309 
L 1409 3309 
L 1409 2516 
L 750 2516 
L 750 3309 
z
" transform="scale(0.015625)"/>
      <path id="DejaVuSans-62" d="M 3116 1747 
Q 3116 2381 2855 2742 
Q 2594 3103 2138 3103 
Q 1681 3103 1420 2742 
Q 1159 2381 1159 1747 
Q 1159 1113 1420 752 
Q 1681 391 2138 391 
Q 2594 391 2855 752 
Q 3116 1113 3116 1747 
z
M 1159 2969 
Q 1341 3281 1617 3432 
Q 1894 3584 2278 3584 
Q 2916 3584 3314 3078 
Q 3713 2572 3713 1747 
Q 3713 922 3314 415 
Q 2916 -91 2278 -91 
Q 1894 -91 1617 61 
Q 1341 213 1159 525 
L 1159 0 
L 581 0 
L 581 4863 
L 1159 4863 
L 1159 2969 
z
" transform="scale(0.015625)"/>
     </defs>
     <use xlink:href="#DejaVuSans-57"/>
     <use xlink:href="#DejaVuSans-68" transform="translate(98.876953 0)"/>
     <use xlink:href="#DejaVuSans-79" transform="translate(162.255859 0)"/>
     <use xlink:href="#DejaVuSans-20" transform="translate(221.435547 0)"/>
     <use xlink:href="#DejaVuSans-70" transform="translate(253.222656 0)"/>
     <use xlink:href="#DejaVuSans-72" transform="translate(316.699219 0)"/>
     <use xlink:href="#DejaVuSans-69" transform="translate(357.8125 0)"/>
     <use xlink:href="#DejaVuSans-63" transform="translate(385.595703 0)"/>
     <use xlink:href="#DejaVuSans-65" transform="translate(440.576172 0)"/>
     <use xlink:href="#DejaVuSans-73" transform="translate(502.099609 0)"/>
     <use xlink:href="#DejaVuSans-20" transform="translate(554.199219 0)"/>
     <use xlink:href="#DejaVuSans-73" transform="translate(585.986328 0)"/>
     <use xlink:href="#DejaVuSans-77" transform="translate(638.085938 0)"/>
     <use xlink:href="#DejaVuSans-69" transform="translate(719.873047 0)"/>
     <use xlink:href="#DejaVuSans-6e" transform="translate(747.65625 0)"/>
     <use xlink:href="#DejaVuSans-67" transform="translate(811.035156 0)"/>
     <use xlink:href="#DejaVuSans-3a" transform="translate(874.511719 0)"/>
     <use xlink:href="#DejaVuSans-20" transform="translate(908.203125 0)"/>
     <use xlink:href="#DejaVuSans-64" transform="translate(939.990234 0)"/>
     <use xlink:href="#DejaVuSans-65" transform="translate(1003.466797 0)"/>
     <use xlink:href="#DejaVuSans-6d" transform="translate(1064.990234 0)"/>
     <use xlink:href="#DejaVuSans-61" transform="translate(1162.402344 0)"/>
     <use xlink:href="#DejaVuSans-6e" transform="translate(1223.681641 0)"/>
     <use xlink:href="#DejaVuSans-64" transform="translate(1287.060547 0)"/>
     <use xlink:href="#DejaVuSans-20" transform="translate(1350.537109 0)"/>
     <use xlink:href="#DejaVuSans-6f" transform="translate(1382.324219 0)"/>
     <use xlink:href="#DejaVuSans-75" transform="translate(1443.505859 0)"/>
     <use xlink:href="#DejaVuSans-74" transform="translate(1506.884766 0)"/>
     <use xlink:href="#DejaVuSans-72" transform="translate(1546.09375 0)"/>
     <use xlink:href="#DejaVuSans-75" transform="translate(1587.207031 0)"/>
     <use xlink:href="#DejaVuSans-6e" transform="translate(1650.585938 0)"/>
     <use xlink:href="#DejaVuSans-73" transform="translate(1713.964844 0)"/>
     <use xlink:href="#DejaVuSans-20" transform="translate(1766.064453 0)"/>
     <use xlink:href="#DejaVuSans-77" transform="translate(1797.851562 0)"/>
     <use xlink:href="#DejaVuSans-68" transform="translate(1879.638672 0)"/>
     <use xlink:href="#DejaVuSans-61" transform="translate(1943.017578 0)"/>
     <use xlink:href="#DejaVuSans-74" transform="translate(2004.296875 0)"/>
     <use xlink:href="#DejaVuSans-20" transform="translate(2043.505859 0)"/>
     <use xlink:href="#DejaVuSans-63" transform="translate(2075.292969 0)"/>
     <use xlink:href="#DejaVuSans-61" transform="translate(2130.273438 0)"/>
     <use xlink:href="#DejaVuSans-6e" transform="translate(2191.552734 0)"/>
     <use xlink:href="#DejaVuSans-20" transform="translate(2254.931641 0)"/>
     <use xlink:href="#DejaVuSans-62" transform="translate(2286.71875 0)"/>
     <use xlink:href="#DejaVuSans-65" transform="translate(2350.195312 0)"/>
     <use xlink:href="#DejaVuSans-20" transform="translate(2411.71875 0)"/>
     <use xlink:href="#DejaVuSans-62" transform="translate(2443.505859 0)"/>
     <use xlink:href="#DejaVuSans-75" transform="translate(2506.982422 0)"/>
     <use xlink:href="#DejaVuSans-69" transform="translate(2570.361328 0)"/>
     <use xlink:href="#DejaVuSans-6c" transform="translate(2598.144531 0)"/>
     <use xlink:href="#DejaVuSans-74" transform="translate(2625.927734 0)"/>
    </g>
   </g>
   <g id="legend_1">
    <g id="patch_5">
     <path d="M 50.943438 43.636641 
L 68.943438 43.636641 
L 68.943438 37.336641 
L 50.943438 37.336641 
z
" style="fill: #fde2e2; fill-opacity: 0.7; stroke: #fde2e2; stroke-opacity: 0.7; stroke-linejoin: miter"/>
    </g>
    <g id="text_20">
     <!-- the gap = volatility -->
     <g transform="translate(76.143438 43.636641) scale(0.09 -0.09)">
      <use xlink:href="#DejaVuSans-74"/>
      <use xlink:href="#DejaVuSans-68" transform="translate(39.208984 0)"/>
      <use xlink:href="#DejaVuSans-65" transform="translate(102.587891 0)"/>
      <use xlink:href="#DejaVuSans-20" transform="translate(164.111328 0)"/>
      <use xlink:href="#DejaVuSans-67" transform="translate(195.898438 0)"/>
      <use xlink:href="#DejaVuSans-61" transform="translate(259.375 0)"/>
      <use xlink:href="#DejaVuSans-70" transform="translate(320.654297 0)"/>
      <use xlink:href="#DejaVuSans-20" transform="translate(384.130859 0)"/>
      <use xlink:href="#DejaVuSans-3d" transform="translate(415.917969 0)"/>
      <use xlink:href="#DejaVuSans-20" transform="translate(499.707031 0)"/>
      <use xlink:href="#DejaVuSans-76" transform="translate(531.494141 0)"/>
      <use xlink:href="#DejaVuSans-6f" transform="translate(590.673828 0)"/>
      <use xlink:href="#DejaVuSans-6c" transform="translate(651.855469 0)"/>
      <use xlink:href="#DejaVuSans-61" transform="translate(679.638672 0)"/>
      <use xlink:href="#DejaVuSans-74" transform="translate(740.917969 0)"/>
      <use xlink:href="#DejaVuSans-69" transform="translate(780.126953 0)"/>
      <use xlink:href="#DejaVuSans-6c" transform="translate(807.910156 0)"/>
      <use xlink:href="#DejaVuSans-69" transform="translate(835.693359 0)"/>
      <use xlink:href="#DejaVuSans-74" transform="translate(863.476562 0)"/>
      <use xlink:href="#DejaVuSans-79" transform="translate(902.685547 0)"/>
     </g>
    </g>
    <g id="line2d_24">
     <path d="M 50.943438 53.696953 
L 59.943438 53.696953 
L 68.943438 53.696953 
" style="fill: none; stroke: #dc2626; stroke-width: 2.6; stroke-linecap: square"/>
    </g>
    <g id="text_21">
     <!-- Demand (agents, reasoning) -->
     <g transform="translate(76.143438 56.846953) scale(0.09 -0.09)">
      <defs>
       <path id="DejaVuSans-44" d="M 1259 4147 
L 1259 519 
L 2022 519 
Q 2988 519 3436 956 
Q 3884 1394 3884 2338 
Q 3884 3275 3436 3711 
Q 2988 4147 2022 4147 
L 1259 4147 
z
M 628 4666 
L 1925 4666 
Q 3281 4666 3915 4102 
Q 4550 3538 4550 2338 
Q 4550 1131 3912 565 
Q 3275 0 1925 0 
L 628 0 
L 628 4666 
z
" transform="scale(0.015625)"/>
      </defs>
      <use xlink:href="#DejaVuSans-44"/>
      <use xlink:href="#DejaVuSans-65" transform="translate(77.001953 0)"/>
      <use xlink:href="#DejaVuSans-6d" transform="translate(138.525391 0)"/>
      <use xlink:href="#DejaVuSans-61" transform="translate(235.9375 0)"/>
      <use xlink:href="#DejaVuSans-6e" transform="translate(297.216797 0)"/>
      <use xlink:href="#DejaVuSans-64" transform="translate(360.595703 0)"/>
      <use xlink:href="#DejaVuSans-20" transform="translate(424.072266 0)"/>
      <use xlink:href="#DejaVuSans-28" transform="translate(455.859375 0)"/>
      <use xlink:href="#DejaVuSans-61" transform="translate(494.873047 0)"/>
      <use xlink:href="#DejaVuSans-67" transform="translate(556.152344 0)"/>
      <use xlink:href="#DejaVuSans-65" transform="translate(619.628906 0)"/>
      <use xlink:href="#DejaVuSans-6e" transform="translate(681.152344 0)"/>
      <use xlink:href="#DejaVuSans-74" transform="translate(744.53125 0)"/>
      <use xlink:href="#DejaVuSans-73" transform="translate(783.740234 0)"/>
      <use xlink:href="#DejaVuSans-2c" transform="translate(835.839844 0)"/>
      <use xlink:href="#DejaVuSans-20" transform="translate(867.626953 0)"/>
      <use xlink:href="#DejaVuSans-72" transform="translate(899.414062 0)"/>
      <use xlink:href="#DejaVuSans-65" transform="translate(938.277344 0)"/>
      <use xlink:href="#DejaVuSans-61" transform="translate(999.800781 0)"/>
      <use xlink:href="#DejaVuSans-73" transform="translate(1061.080078 0)"/>
      <use xlink:href="#DejaVuSans-6f" transform="translate(1113.179688 0)"/>
      <use xlink:href="#DejaVuSans-6e" transform="translate(1174.361328 0)"/>
      <use xlink:href="#DejaVuSans-69" transform="translate(1237.740234 0)"/>
      <use xlink:href="#DejaVuSans-6e" transform="translate(1265.523438 0)"/>
      <use xlink:href="#DejaVuSans-67" transform="translate(1328.902344 0)"/>
      <use xlink:href="#DejaVuSans-29" transform="translate(1392.378906 0)"/>
     </g>
    </g>
    <g id="line2d_25">
     <path d="M 50.943438 66.907266 
L 59.943438 66.907266 
L 68.943438 66.907266 
" style="fill: none; stroke: #64748b; stroke-width: 2.6; stroke-linecap: square"/>
    </g>
    <g id="text_22">
     <!-- Supply (chips, power, data centers) -->
     <g transform="translate(76.143438 70.057266) scale(0.09 -0.09)">
      <defs>
       <path id="DejaVuSans-53" d="M 3425 4513 
L 3425 3897 
Q 3066 4069 2747 4153 
Q 2428 4238 2131 4238 
Q 1616 4238 1336 4038 
Q 1056 3838 1056 3469 
Q 1056 3159 1242 3001 
Q 1428 2844 1947 2747 
L 2328 2669 
Q 3034 2534 3370 2195 
Q 3706 1856 3706 1288 
Q 3706 609 3251 259 
Q 2797 -91 1919 -91 
Q 1588 -91 1214 -16 
Q 841 59 441 206 
L 441 856 
Q 825 641 1194 531 
Q 1563 422 1919 422 
Q 2459 422 2753 634 
Q 3047 847 3047 1241 
Q 3047 1584 2836 1778 
Q 2625 1972 2144 2069 
L 1759 2144 
Q 1053 2284 737 2584 
Q 422 2884 422 3419 
Q 422 4038 858 4394 
Q 1294 4750 2059 4750 
Q 2388 4750 2728 4690 
Q 3069 4631 3425 4513 
z
" transform="scale(0.015625)"/>
      </defs>
      <use xlink:href="#DejaVuSans-53"/>
      <use xlink:href="#DejaVuSans-75" transform="translate(63.476562 0)"/>
      <use xlink:href="#DejaVuSans-70" transform="translate(126.855469 0)"/>
      <use xlink:href="#DejaVuSans-70" transform="translate(190.332031 0)"/>
      <use xlink:href="#DejaVuSans-6c" transform="translate(253.808594 0)"/>
      <use xlink:href="#DejaVuSans-79" transform="translate(281.591797 0)"/>
      <use xlink:href="#DejaVuSans-20" transform="translate(340.771484 0)"/>
      <use xlink:href="#DejaVuSans-28" transform="translate(372.558594 0)"/>
      <use xlink:href="#DejaVuSans-63" transform="translate(411.572266 0)"/>
      <use xlink:href="#DejaVuSans-68" transform="translate(466.552734 0)"/>
      <use xlink:href="#DejaVuSans-69" transform="translate(529.931641 0)"/>
      <use xlink:href="#DejaVuSans-70" transform="translate(557.714844 0)"/>
      <use xlink:href="#DejaVuSans-73" transform="translate(621.191406 0)"/>
      <use xlink:href="#DejaVuSans-2c" transform="translate(673.291016 0)"/>
      <use xlink:href="#DejaVuSans-20" transform="translate(705.078125 0)"/>
      <use xlink:href="#DejaVuSans-70" transform="translate(736.865234 0)"/>
      <use xlink:href="#DejaVuSans-6f" transform="translate(800.341797 0)"/>
      <use xlink:href="#DejaVuSans-77" transform="translate(861.523438 0)"/>
      <use xlink:href="#DejaVuSans-65" transform="translate(943.310547 0)"/>
      <use xlink:href="#DejaVuSans-72" transform="translate(1004.833984 0)"/>
      <use xlink:href="#DejaVuSans-2c" transform="translate(1045.947266 0)"/>
      <use xlink:href="#DejaVuSans-20" transform="translate(1077.734375 0)"/>
      <use xlink:href="#DejaVuSans-64" transform="translate(1109.521484 0)"/>
      <use xlink:href="#DejaVuSans-61" transform="translate(1172.998047 0)"/>
      <use xlink:href="#DejaVuSans-74" transform="translate(1234.277344 0)"/>
      <use xlink:href="#DejaVuSans-61" transform="translate(1273.486328 0)"/>
      <use xlink:href="#DejaVuSans-20" transform="translate(1334.765625 0)"/>
      <use xlink:href="#DejaVuSans-63" transform="translate(1366.552734 0)"/>
      <use xlink:href="#DejaVuSans-65" transform="translate(1421.533203 0)"/>
      <use xlink:href="#DejaVuSans-6e" transform="translate(1483.056641 0)"/>
      <use xlink:href="#DejaVuSans-74" transform="translate(1546.435547 0)"/>
      <use xlink:href="#DejaVuSans-65" transform="translate(1585.644531 0)"/>
      <use xlink:href="#DejaVuSans-72" transform="translate(1647.167969 0)"/>
      <use xlink:href="#DejaVuSans-73" transform="translate(1688.28125 0)"/>
      <use xlink:href="#DejaVuSans-29" transform="translate(1740.380859 0)"/>
     </g>
    </g>
   </g>
  </g>
 </g>
 <defs>
  <clipPath id="p788e68f058">
   <rect x="42.843438" y="28.698047" width="502.585" height="229.77024"/>
  </clipPath>
 </defs>
</svg>
