<svg width="170" height="167" viewBox="0 0 170 167" fill="none" xmlns="http://www.w3.org/2000/svg">
<path d="M62.0303 141.95C67.7955 141.95 72.4691 147.558 72.4691 154.475C72.4691 161.392 67.7955 167 62.0303 167C56.2655 166.999 51.5914 161.392 51.5914 154.475C51.5914 147.558 56.2655 141.951 62.0303 141.95Z" fill="#FD6341"/>
<path d="M82.9079 125.25C88.6731 125.25 93.3468 130.858 93.3468 137.775C93.3468 144.692 88.6731 150.3 82.9079 150.3C77.1432 150.299 72.4691 144.692 72.4691 137.775C72.4691 130.858 77.1432 125.251 82.9079 125.25Z" fill="#FD6341"/>
<path d="M124.141 132.613C127.025 127.624 134.217 126.384 140.207 129.841C146.197 133.299 148.721 140.147 145.843 145.138C142.96 150.131 135.76 151.378 129.769 147.919C123.779 144.46 121.259 137.605 124.141 132.613Z" fill="#FD6341"/>
<path d="M95.4345 100.2C101.2 100.2 105.873 105.808 105.873 112.725C105.873 119.642 101.2 125.25 95.4345 125.25C89.6698 125.249 84.9957 119.642 84.9957 112.725C84.9957 105.808 89.6698 100.201 95.4345 100.2Z" fill="#FD6341"/>
<path d="M120.129 106.193C123.012 101.204 130.205 99.9643 136.195 103.421C142.185 106.879 144.709 113.727 141.83 118.718C138.948 123.711 131.747 124.958 125.756 121.499C119.766 118.04 117.247 111.185 120.129 106.193Z" fill="#FD6341"/>
<path d="M31.7087 99.7841C37.6995 96.3258 44.8997 97.5656 47.7829 102.557C50.6655 107.549 48.1389 114.404 42.1475 117.862C36.1566 121.319 28.9638 120.073 26.0815 115.082C23.2024 110.09 25.7202 103.242 31.7087 99.7841Z" fill="#FD6341"/>
<path d="M59.6652 98.1207C65.656 94.6623 72.8562 95.9021 75.7394 100.893C78.622 105.885 76.0954 112.74 70.104 116.199C64.1131 119.656 56.9203 118.41 54.038 113.418C51.1589 108.427 53.6767 101.579 59.6652 98.1207Z" fill="#FD6341"/>
<path d="M6.81858 90.0642C12.8094 86.6059 20.0096 87.8457 22.8928 92.8367C25.7754 97.8289 23.2488 104.684 17.2574 108.142C11.2665 111.599 4.07367 110.353 1.19139 105.362C-1.68774 100.37 0.830127 93.5225 6.81858 90.0642Z" fill="#FD6341"/>
<path d="M104.666 82.7906C107.55 77.8011 114.742 76.5614 120.732 80.0181C126.722 83.4758 129.246 90.3238 126.368 95.3156C123.485 100.308 116.285 101.555 110.294 98.0962C104.304 94.6371 101.784 87.7822 104.666 82.7906Z" fill="#FD6341"/>
<path d="M43.5992 71.6518C46.4824 66.6623 53.6752 65.4227 59.6652 68.8793C65.6548 72.337 68.179 79.185 65.3005 84.1768C62.4179 89.169 55.2177 90.4161 49.2264 86.9574C43.2365 83.4984 40.7169 76.6434 43.5992 71.6518Z" fill="#FD6341"/>
<path d="M152.734 58.8659C158.725 55.4075 165.925 56.6473 168.808 61.6383C171.691 66.6305 169.164 73.4853 163.173 76.9439C157.182 80.4011 149.989 79.1549 147.107 74.1633C144.228 69.172 146.746 62.3242 152.734 58.8659Z" fill="#FD6341"/>
<path d="M99.8547 50.8094C105.846 47.3511 113.046 48.5909 115.929 53.5819C118.812 58.5741 116.285 65.4288 110.294 68.8875C104.303 72.3447 97.1098 71.0985 94.2276 66.1069C91.3484 61.1156 93.8663 54.2677 99.8547 50.8094Z" fill="#FD6341"/>
<path d="M127.844 49.1296C133.835 45.6713 141.035 46.9111 143.918 51.9021C146.801 56.8943 144.274 63.749 138.283 67.2077C132.292 70.6649 125.099 69.4187 122.217 64.4271C119.338 59.4358 121.855 52.5879 127.844 49.1296Z" fill="#FD6341"/>
<path d="M74.5569 41.75C80.3221 41.75 84.9957 47.3576 84.9957 54.275C84.9957 61.1924 80.3221 66.8 74.5569 66.8C68.7921 66.7993 64.118 61.192 64.118 54.275C64.118 47.358 68.7921 41.7507 74.5569 41.75Z" fill="#FD6341"/>
<path d="M28.1693 48.2653C31.0525 43.2758 38.2453 42.0362 44.2353 45.4928C50.2249 48.9505 52.7491 55.7985 49.8706 60.7903C46.988 65.7825 39.7878 67.0296 33.7965 63.5709C27.8066 60.1118 25.287 53.2569 28.1693 48.2653Z" fill="#FD6341"/>
<path d="M87.0835 16.7C92.8487 16.7 97.5223 22.3076 97.5223 29.225C97.5223 36.1424 92.8487 41.75 87.0835 41.75C81.3187 41.7493 76.6446 36.142 76.6446 29.225C76.6446 22.308 81.3187 16.7007 87.0835 16.7Z" fill="#FD6341"/>
<path d="M24.1568 21.8617C27.0401 16.8722 34.2329 15.6325 40.2229 19.0892C46.2124 22.5468 48.7367 29.3949 45.8582 34.3867C42.9756 39.3789 35.7754 40.626 29.784 37.1673C23.7941 33.7082 21.2746 26.8533 24.1568 21.8617Z" fill="#FD6341"/>
<path d="M107.961 0C113.726 0 118.4 5.60763 118.4 12.525C118.4 19.4424 113.726 25.05 107.961 25.05C102.196 25.0493 97.5223 19.442 97.5223 12.525C97.5223 5.60804 102.196 0.00066099 107.961 0Z" fill="#FD6341"/>
</svg>
